<?xml version="1.0" encoding="utf-8"?>
<!-- Generator: Adobe Illustrator 28.5.0, SVG Export Plug-In . SVG Version: 9.03 Build 54727)  -->
<svg version="1.1" id="Layer_1" xmlns="http://www.w3.org/2000/svg" xmlns:xlink="http://www.w3.org/1999/xlink" x="0px" y="0px"
	 viewBox="0 0 512 512" enable-background="new 0 0 512 512" xml:space="preserve">
<path fill="#1E2425" d="M497.04,333.5c-4.24,11.11-7.9,22.5-12.89,33.26c-5,10.77-11.34,20.92-17.4,31.88
	c9.38,1.56,18.56-0.26,27.75-2.22c0.34,0.6,0.67,1.2,1,1.79c-8.57,6.73-16.79,14.02-25.84,20.04c-7.36,4.89-15.82,8.09-23.6,12.4
	c-3.95,2.19-7.99,4.65-11.1,7.85c-21.05,21.57-45.35,38.32-73.34,50.01c-0.42-6.23-0.43-12.1-0.12-18.14
	c2.25-2.55,4.19-4.93,6.49-7.15c6.4,1.53,10.19-0.84,11.23-6.61c0.46-2.53-0.07-3.09-3.48-3.2c-1.56,0.02-2.69,0.04-3.92-0.34
	c-6.01-3.62-11.09,0.6-16.45,1.69c-2.57,0.53-4.75,2.98-7.51,4.69c-1.54,0.24-2.67,0.36-4.27,0.35c-3.36-0.1-6.26-0.08-9.45-0.24
	c-1.19-0.09-2.08,0-3.44-0.07c-36.71-2.52-70.43-12.97-100.86-32.87c-10.49-6.86-19.83-15.48-29.33-23.55
	c0.27-4.78,0-9.31,0.13-13.83c0.13-4.43-0.49-7.91-4.3-11.27c-2.29-2.02-2.69-6.7-2.89-10.24c-0.05-0.99,3.68-2.13,5.59-3.34
	c0.65-0.41,1.03-1.25,1.93-1.9c11.7,4.32,23.01,8.64,34.31,12.98c33.28,12.78,66.8,25.16,102.26,30.01
	c22.68,3.11,45.73,3.52,68.56,5.51c-1.02,2.35-1.99,4.33-2.96,6.31c0.5,0.33,1,0.67,1.5,1c2.27-2.62,4.53-5.24,7.06-8.11
	c3.67-3.63,7.08-7.01,10.54-10.05c0.81,0.53,1.58,0.72,2.35,0.9c-0.17-1.14-0.34-2.28-0.51-3.79c-1.04-1.92-1.98-3.56-3.15-5
	c-2.34-2.87-4.82-5.63-6.85-8.48c1.01-1.09,2.12-2.13,2.16-3.19c0.09-2.98-0.39-5.98-0.41-8.97c-0.07-8.35-0.03-8.31,8.04-7.16
	c1.57,0.22,3.19,0.08,4.79,0.57c2,5.71-0.91,12.26,4.28,17.08c-1.54,3.31-3.14,6.18-4.54,9.15c-0.36,0.77-0.07,1.85-0.08,2.79
	c0.83-0.19,1.66-0.38,2.84-0.41c4,2.09,7.96,3.97,10.09-1.36c2.3-5.73,5.15-10.7,10.71-13.87c1.15-0.66,2.58-3.14,2.19-3.83
	c-3.04-5.38,0.68-9.37,2.19-13.92c1.53-4.63,2.28-9.51,3.37-14.64c0-0.83,0-1.31,0.38-1.82c2.3-2.24,4.32-4.37,6.15-6.65
	c4.06-5.08,3.09-12.86,9.08-16.97c3.05-2.1,3.69-5.14,3.82-8.79c0.14-3.91-0.31-8.54,5.09-11.39c-0.37,3.26-1.19,5.87-0.84,8.31
	c0.7,4.95,2.58,9.77,2.98,14.73C487.11,332.98,487.29,333.45,497.04,333.5 M368.35,468.81c-0.39,1.09-0.79,2.17-1.18,3.25
	c0.47,0.11,0.94,0.22,1.41,0.33C368.75,471.24,368.92,470.09,368.35,468.81z"/>
<path fill="#1F2427" d="M497.26,333.16c-9.97,0.29-10.15-0.19-10.92-9.76c-0.4-4.95-2.28-9.78-2.98-14.73
	c-0.35-2.44,0.47-5.05,0.84-8.31c-5.4,2.84-4.94,7.48-5.09,11.39c-0.14,3.65-0.77,6.69-3.82,8.79c-5.98,4.11-5.01,11.89-9.08,16.97
	c-1.83,2.28-3.84,4.41-6.15,6.24c1.77-5.28,3.87-10.21,6.08-15.08c1.46-3.21,2.57-6.74,4.72-9.41c6.04-7.47,7.53-16.41,9.32-25.73
	c3.58-9.35,8-18.04,8.85-27.84c-2.36,3.89-4.53,7.85-6.01,12.05c-1.99,5.64-3.45,11.47-5.43,17.46c-1.65,3.47-2.83,6.79-4.41,9.91
	c-1.42,2.8-3.26,5.39-5.31,8.1c-1.89,0.37-3.39,0.7-4.96,0.63c0.65-2.63,1.36-4.86,2.48-7.15c1.09-0.56,2.37-1.08,2.37-1.59
	c0.01-5.55,5.37-10.17,2.74-16.24c-0.43-1,0.58-2.63,0.92-3.97c0.53-2.06,1.03-4.13,1.59-6.18c0.5-1.82,0.81-3.76,1.67-5.4
	c0.77-1.47,2.51-2.44,3.22-3.93c1.79-3.73,3.23-7.63,5.03-11.97c-5.51-0.78-3.74-6.01-4.02-10.44c-0.36-5.67-0.95-11.33-1.54-18.26
	c-1.98,2.4-2.97,3.59-4.61,5.58c-0.71-8.53,2.98-16.23-0.42-23.63c-2.05,1.6-3.58,2.8-5.34,3.68c-0.64-2.09-1.06-3.85-1.53-5.86
	c-1.83,0.53-3.27,0.95-4.71,0.92c0.29-2.02,0.68-3.56,0.86-5.13c0.44-3.87,0.93-7.75,1.14-11.64c0.23-4.33,0.35-8.67,0.19-13
	c-0.1-2.78-1.34-5.59-1.11-8.31c0.49-5.74-1.77-8.95-7.54-9.05c-2.43-0.04-4.87,0.64-7.54,0.69c-2.91-6.87-5.59-13.42-7.99-20.28
	c3.01-12.47,2.69-24.74,0.61-36.87c-1.52-8.85-4.15-17.51-6.28-26.26c1.02,0.56,2.24,0.9,3.02,1.69
	c38.46,38.79,61.1,85.61,69.33,139.31c2.3,15.02,2.92,30.52,2.31,45.72C506.88,288.74,505.49,311.36,497.26,333.16 M490.9,262.97
	c1.1-2.57,2.21-5.13,3.31-7.7c-0.62-0.22-1.24-0.43-1.86-0.65C491.64,257.45,490.93,260.29,490.9,262.97z"/>
<path fill="#1E2221" d="M165.16,21.65c7.54-2.93,15.09-5.86,23.24-8.48c1.26-0.11,1.91-0.53,2.56-0.95
	c14.16-2.98,28.28-6.18,42.5-8.83c5.37-1,10.99-0.7,16.78-0.58c-3,6.33-7.56,10.48-14.48,10.88c-1.08,2.64-2.54,4.93-2.9,7.39
	c-0.71,4.85-3.23,4.45-6.81,3.37c-1.49-0.45-3.39,0.44-5.53,0.72c-1.8-0.51-3.2-0.98-4.57-1.53c-2.27-0.9-4.53-1.83-7.2-2.71
	c-7.42-0.3-14.4-0.45-20.39,4.2c-0.23,0.17-0.7,0-1.05,0.04c-7.57,0.81-15.07-0.99-22.86,2.59c-4.2,1.93-7.44,3.62-10.01,7.21
	c-1.93,2.71-4.12,4.98-7.99,3.28c-4.57-2.01-7.24-0.18-9.07,4.25c-0.78,1.91-2.81,4.76-4.21,4.72c-7.96-0.23-14.47,1.66-19.11,8.73
	c-1.1,1.68-4.15,1.95-5.78,3.44c-3.32,3.02-6.29,6.42-9.8,9.68c-4.8,0.62-7.31,3.19-8.2,7.87c-4.5,6.67-7.84,13.25-6.6,21.41
	c0.16,1.07-1.73,2.42-2.58,3.7c-1.27,1.93-3.03,3.77-3.57,5.9c-1.22,4.81-1.37,9.75-8.45,9.98c-3.14,0.1-4.42,3.07-4.53,6.72
	c-0.08,2.91-2.02,5.77-3.54,8.66c-6.1,0.8-6.89,5.01-7.24,9.98c-0.6,1.49-0.73,3.16-1.56,3.67c-6.38,3.94-5.25,10.4-5.95,16.65
	c-1.33,2.28-2.61,4.16-3.63,6.18c-3.88,7.66-11.49,13.43-11.65,23.02c-0.02,1.07-1.22,2.09-1.79,3.19
	c-2.82,5.48-6.3,10.74-8.24,16.51c-2.12,6.33-5.18,8.39-10.99,5.37c1.36-16.61,5.59-32.52,11.26-48.15
	c9.97-27.49,24.6-52.28,43.78-74.2c9.65-11.03,20.4-21.19,31.34-30.98c8.97-8.03,18.95-14.92,29.06-22.06
	c1.68,0.73,2.78,1.2,4.33,1.86c0-2.12,0-3.45,0-4.78c4.77-2.72,9.54-5.44,14.85-7.92c1.55-0.51,2.55-1.26,3.55-2.01
	c4.68-2.31,9.35-4.61,14.59-6.68C163.91,22.67,164.54,22.16,165.16,21.65 M14.7,210.98c-0.41,0.94-0.83,1.88-1.24,2.83
	c0.45,0.1,0.9,0.2,1.34,0.31C14.92,213.24,15.04,212.37,14.7,210.98 M197.78,15.02c-0.22-0.06-0.45-0.11-0.67-0.17
	C197.26,14.99,197.4,15.13,197.78,15.02 M145.49,34.16C145.49,34.16,145.56,34.28,145.49,34.16z"/>
<path fill="#222625" d="M9.83,218.21c5.94,2.68,9,0.62,11.12-5.71c1.94-5.78,5.41-11.04,8.24-16.51c0.56-1.09,1.77-2.12,1.79-3.19
	c0.17-9.59,7.78-15.36,11.65-23.02c1.02-2.02,2.3-3.9,4.06-6.18c4.87-0.58,16.17-9.31,16.62-13.79c0.59-5.97,4.56-7.43,9.06-8.95
	c1.38-0.47,3.49-1.27,3.71-2.26c0.85-3.98,3.87-5.05,6.93-6.6c2.08-1.05,4.06-2.92,5.28-4.92c2.7-4.42,3.51-9.98,8.36-13.14
	c0.79-0.51,0.61-2.36,1.18-3.42c1.69-3.18,3.54-6.27,5.57-9.67c1.89-0.94,3.54-1.6,5.46-2.42c0.42-0.29,0.58-0.43,1.19-0.54
	c3.72,0.44,6.98,0.87,10.23,1.69c-0.08,0.75-0.03,1.29-0.24,1.41c-7.85,4.55-8.89,11.02-5.54,18.89c0.43,1.01,0.25,2.48-0.1,3.6
	c-3.35,10.62-3.38,10.61-14.56,10.9c-1.23,0.03-2.65-0.09-3.64,0.47c-1.09,0.61-2.45,1.87-2.53,2.94
	c-0.54,7.25-1.3,14.54-0.97,21.78c0.31,6.72,0.34,7.07-6.38,7c-4.56-0.05-4.39-2.76-4.72-5.99c-0.18-1.78-1.4-4.08-2.86-4.9
	c-1.04-0.58-3.49,0.57-4.88,1.55c-3.06,2.15-5.53,5.38-8.82,6.92c-7.21,3.36-11.4,10.09-9.81,17.35c-8.11,3.21-8.63,4.1-5.9,10.16
	c2.24-1.48,4.45-5.91,6.57,0.1c-1.58,1.9-3.53,3.34-4.13,5.21c-9.42,29.38-12.49,59.61-12.18,90.31c-0.74-0.38-1.25-0.69-1.44-1.14
	c-7.94-18.46-15.83-36.94-23.77-55.39c-1.45-3.38-3.12-6.67-4.69-10C9.7,220.01,9.7,219.28,9.83,218.21z"/>
<path fill="#DB8F3A" d="M433.07,79.58c2.19,8.7,4.82,17.36,6.34,26.22c2.08,12.14,2.4,24.41-0.95,36.7
	c-5.15-7.52-9.69-15.16-14.16-23.22c0.12-0.68,0.17-0.95,0.57-1.1c4.14,5.3,7.92,10.48,12.52,16.77c0.42-2.75,0.93-4.37,0.87-5.96
	c-0.24-6.74-0.15-13.54-1.12-20.18c-2.02-13.72-3.42-27.76-15.92-37.22c-11.63-8.81-22.9-18.1-34.45-27.46
	c-0.75-0.81-1.38-1.34-2.19-2.13c-0.77-0.44-1.37-0.63-2.19-1.08c-1.15-0.45-2.07-0.62-3.15-1.12c-1.44-0.84-2.71-1.35-4.09-2.23
	c-5.44-2.97-10.78-5.57-16.35-8.19c-0.23-0.02-0.7-0.01-0.78-0.39c-6.02-3.24-11.73-6.85-17.96-8.8
	c-12.76-3.99-25.67-7.75-38.77-10.38c-12.42-2.49-25.17-3.36-37.76-5.08c-4.68-0.64-7.66,1.66-10.52,4.86
	c-4.29,4.8-8.62,9.6-13.29,14.03c-4.06,3.86-8.61,7.2-12.95,10.76c20.74-1.26,41.15-1.49,61.23,0.83c-2.81,0.49-5.3,0.69-8.23,1.02
	c-9.29-0.07-18.14-0.27-27.44-0.46c-3.96,0.28-7.47,0.55-11.39,1.01c-8.62,1.15-16.81,2.12-25.09,2.94
	c-0.09-0.14-0.11-0.48,0.25-0.56c13.98-9.74,26.37-20.75,37.1-33.57c0.85-1.02,1.29-2.38,1.91-3.58c30.6-0.18,60.19,5.37,88.65,16.5
	c27.89,10.9,53.14,26.34,75.7,46.08c4.67,4.08,8.93,8.62,13.3,13.48c0.06,0.9,0.2,1.27,0.34,1.64
	C433.11,79.73,433.02,79.63,433.07,79.58z"/>
<path fill="#DE8938" d="M9.39,221.03c1.89,3.04,3.55,6.33,5.01,9.71c7.95,18.46,15.83,36.93,23.77,55.39
	c0.19,0.44,0.7,0.75,1.61,1.52c1.11,1.83,1.94,3.21,2.19,4.69c2.74,16.38,6.46,32.46,14.38,47.24c4.78,8.9,9.86,17.64,14.78,26.94
	c-0.05,1.44-0.07,2.4-0.45,3.31c-1.9-2.16-3.65-4.14-4.93-6.39c-4.49-7.91-8.82-15.91-13.19-23.88c-3.79-6.9-7.24-13.92-7.24-22.46
	c-1.03-2.28-2.07-4.18-3.14-6.5c-1.57-9.74-5.04-18.42-8.83-27c-3.19-7.24-6.23-14.54-9.08-22.04c-4.02-10.36-8.3-20.48-12.57-30.61
	c-0.56,0.16-1.12,0.32-1.68,0.49c0,3.33,0,6.66-0.01,10.48c-0.31,6.14-1.2,11.84-0.8,17.45c1.07,15.1,2.68,30.17,4.07,45.67
	c0.73,4.23,1.26,8.1,2.3,11.82c0.41,1.46,1.94,2.61,2.96,4.35c0.04,1.9,0.08,3.37,0.11,5.25c1.76,5.49,3.54,10.55,5.34,15.99
	c0.36,1.55,0.69,2.74,1.02,4.29c0.69,1.21,1.38,2.05,2.08,3.32c0.4,2.58,0.78,4.74,1.18,7.31c1.67,5.23,3.33,10.06,5,14.89
	c-3.58-8.05-7.61-15.93-10.67-24.17c-15-40.38-17.81-82.2-14.14-124.72C8.51,222.65,8.86,221.99,9.39,221.03z"/>
<path fill="#C8602F" d="M288.44,508.54c-13.47,0.75-26.95,2.29-40.4,2.07c-24.56-0.39-48.58-4.74-71.92-12.55
	c-32.06-10.73-60.57-27.49-85.54-50.32c-16.78-15.34-31.55-32.38-43.63-51.82c1.11-0.36,1.88-0.33,2.7,0.04
	c1.44,1.9,2.84,3.45,4.25,5.39c0.75,1.76,1.3,3.27,2.26,4.45c3.1,3.83,6.22,7.66,9.57,11.27c9.71,10.46,18.87,21.54,29.49,31
	c10.26,9.14,22.04,16.58,33.2,24.71c21.56,15.7,46.65,23.07,71.91,29.75c7.99,2.11,16.49,2.2,24.7,3.56
	c18.22,3.01,36.47,2.5,54.76,0.96c2.87-0.24,5.76-0.09,8.69,0.28C288.49,508,288.46,508.27,288.44,508.54z"/>
<path fill="#262625" d="M361.19,470.53c0.01,5.88,0.02,11.75,0.04,17.98c-18.42,9.35-37.99,14.58-58.39,17.77
	c17.09-6.95,32.82-16.3,47.13-28.15C353.44,475.27,357.44,473.05,361.19,470.53z"/>
<path fill="#EC5A0D" d="M49.59,395.61c-0.77-0.02-1.54-0.04-2.7-0.06c-0.39,0.01-0.41,0.05-0.41-0.35
	c-2.12-3.73-4.24-7.06-6.36-10.38c0,0-0.27-0.25-0.23-0.81c-0.7-1.5-1.43-2.43-2.16-3.37c0,0-0.24-0.21-0.2-0.7
	c-0.29-0.77-0.62-1.04-0.94-1.31c0,0,0.23-0.12,0.2-0.45c-1.17-2.2-2.32-4.07-3.47-5.94c0,0-0.01-0.03-0.03-0.02
	c-1.68-4.82-3.34-9.64-4.64-14.8c5.46,2.87,10.55,6.06,15.69,9.64c1.71,2.59,3.41,4.77,5.06,7c1.41,1.91,2.72,3.91,4.16,5.81
	c1.38,1.83,2.65,3.82,4.35,5.29c1.71,1.48,3.95,2.33,5.84,3.64c0.76,0.53,1.72,1.58,1.65,2.31c-0.07,0.79-1.14,1.95-1.94,2.12
	C58.85,394.15,54.21,394.84,49.59,395.61z"/>
<path fill="#4E210A" d="M361.51,470.36c-4.08,2.68-8.07,4.9-11.53,7.77c-14.32,11.84-30.04,21.2-47.56,28.08
	c-4.41,1-8.72,1.64-13.5,2.3c-0.46-0.24-0.43-0.51-0.1-1.15c0.78-0.44,1.25-0.51,1.98-0.6c0.6-0.17,0.85-0.41,1.25-0.73
	c0.24,0.01,0.7-0.15,1.06-0.16c1.62-0.66,2.89-1.3,4.36-1.94c0.21,0.01,0.61-0.13,0.94-0.14c0.9-0.31,1.46-0.62,2.26-0.93
	c0.23,0,0.65-0.17,1.04-0.2c3.31-1.41,6.24-2.78,9.5-4.18c0.85-0.37,1.38-0.71,2.29-1.1c7.38-4.24,14.39-8.43,21.75-12.68
	c3.51-2.04,6.94-3.68,9.76-6.06c8.1-6.82,15.95-13.93,24.12-20.81c0.46,0.36,0.65,0.63,0.72,1.29c-0.78,1.54-1.5,2.74-2.21,3.93
	C365.7,465.43,363.77,467.81,361.51,470.36z"/>
<path fill="#242622" d="M254.76,2c-0.27,1.23-0.7,2.59-1.55,3.6c-10.73,12.82-23.12,23.83-37.15,33.18
	c-0.17-3.52,0.07-6.73,0.27-9.53c2.56,0.39,5,0.77,7.45,1.14c0.08-0.47,0.17-0.94,0.25-1.41c-1.03-1.28-2.06-2.55-3.09-3.83
	c1.72-0.28,3.62-1.17,5.11-0.72c3.58,1.08,6.1,1.49,6.81-3.37c0.36-2.46,1.83-4.75,2.9-7.39c6.92-0.4,11.48-4.55,14.97-10.78
	C252.09,2.39,253.25,2.18,254.76,2z"/>
<path fill="#DE8938" d="M40.1,385.21c2.13,2.94,4.25,6.27,6.35,9.99C44.32,392.27,42.21,388.93,40.1,385.21z"/>
<path fill="#242622" d="M129.39,39.64c0.35,1.25,0.35,2.58,0.35,4.7c-1.55-0.66-2.65-1.13-3.96-1.92
	C126.73,41.3,127.89,40.5,129.39,39.64z"/>
<path fill="#DE8938" d="M33.29,372.62c1.17,1.49,2.31,3.36,3.37,5.63C35.47,376.76,34.37,374.88,33.29,372.62z"/>
<path fill="#242622" d="M147.82,29.62c-0.67,0.76-1.67,1.51-2.84,1.97C145.71,30.74,146.6,30.18,147.82,29.62z"/>
<path fill="#DE8938" d="M37.71,381.01c0.74,0.57,1.48,1.5,2.14,2.82C39.09,383.27,38.39,382.33,37.71,381.01z"/>
<path fill="#242622" d="M164.85,21.65c-0.31,0.51-0.93,1.02-1.73,1.23C163.48,22.26,164.01,21.95,164.85,21.65z"/>
<path fill="#242622" d="M190.72,12.14c-0.41,0.49-1.06,0.91-1.91,0.98C189.24,12.53,189.86,12.3,190.72,12.14z"/>
<path fill="#DE8938" d="M36.58,378.95c0.31-0.04,0.64,0.23,0.92,0.84C37.17,379.83,36.88,379.55,36.58,378.95z"/>
<path fill="#1F2427" d="M433.35,79.34c-0.38,0.02-0.52-0.36-0.48-0.93C433.24,78.46,433.42,78.71,433.35,79.34z"/>
<path fill="#FDFDFC" d="M215.95,39.88c8.19-0.97,16.39-1.93,25.48-3.04c4.39-0.45,7.89-0.75,11.38-1.06
	c8.84,0.2,17.69,0.4,27.25,0.8c1.04,0.36,1.34,0.62,1.67,0.66c24.93,3.23,48.68,10.15,71.32,21.28
	c24.7,12.15,45.84,28.43,62.35,50.57c2.74,3.68,5.87,7.08,8.82,10.6c4.54,7.65,9.08,15.29,13.96,23.11
	c3.01,6.73,5.68,13.29,8.56,20.59c0.87,7.84,1.54,14.92,2.31,23.1c-12.99-11.03-24.57-20.86-36.67-31.14
	c-12.36,23.85-24.13,46.57-36.52,70.48c-8.12-15.23-15.61-29.29-23.14-43.73c-2.31-4.81-4.58-9.24-6.89-14.04
	c-0.59-1.14-1.14-1.92-1.7-3.02c-0.42-1.07-0.84-1.82-1.26-2.84c-0.25-0.55-0.49-0.81-0.75-1.4c-0.38-0.85-0.74-1.37-1.13-2.27
	c-1.01-2.15-1.99-3.92-3.01-6.08c-1.03-3.98-3.29-4.67-6.91-4.34c-12.01,1.12-23.08,5.35-33.95,10.05
	c-8.18,3.54-15.96,7.99-24.79,12.48c5.23,5.04,9.69,8.67,13.35,12.98c8.06,9.51,15.71,19.37,23.61,29.44c1.36,2.26,2.63,4.17,4,6.46
	c3.84,6.15,7.58,11.92,11.31,17.93c1.1,1.85,2.2,3.46,3.35,5.45c3.62,5.82,7.21,11.27,10.86,17.09c2.11,4.3,4.16,8.23,5.89,12.36
	c-12.44,19.51-24.54,38.83-36.68,58.13c-1.04,1.65-2.03,3.47-3.48,4.7c-10.03,8.48-20.15,16.86-30.31,25.19
	c-1.47,1.21-3.28,2-4.93,2.99c0.27,0.82,0.54,1.64,0.8,2.46c7.5,4.31,14.99,8.61,22.73,13.19c1.84,0.88,3.44,1.49,5.3,2.35
	c9.84,3.29,19.31,6.7,29.01,9.26c8.81,2.33,8.92,1.92,13.01-6.99c0.87-1.48,1.46-2.74,2.34-4.17c0.71-1.16,1.14-2.15,1.86-3.36
	c10.32-18.78,20.35-37.33,31.06-57.17c8.37,14.62,15.79,27.8,23.44,40.85c4.76,8.12,9.88,16.02,14.84,24.02
	c2.42,2.81,4.9,5.57,7.24,8.43c1.18,1.44,2.12,3.08,2.87,5.1c-0.73,1.13-1.17,1.79-1.61,2.44c-3.41,3.39-6.82,6.77-10.93,10.3
	c-2.17,0.27-3.64,0.4-5.11,0.53c-22.88-1.62-45.93-2.03-68.61-5.14c-35.46-4.86-68.98-17.23-102.26-30.01
	c-11.3-4.34-22.6-8.65-34.62-13.22c-2.09-0.52-3.58-0.55-4.82-1.12c-12.54-5.74-25.04-11.57-37.56-17.34
	c-1.13-0.52-2.36-0.81-3.54-1.21c4.24,8.43,8.9,16.2,14.29,23.43c9.69,12.99,18.55,26.71,31.12,37.32
	c9.87,7.81,19.21,16.43,29.7,23.29c30.43,19.9,64.14,30.35,100.99,33.14c1.6,0.29,2.6,0.14,3.6-0.02c2.9-0.02,5.79-0.05,9.08,0.43
	c-12.29,4.49-24.76,9.35-37.69,12.21c-12,2.65-24.47,3.13-36.73,4.7c-1.14,0.15-2.16,1.24-3.66,1.99c-1.54,0.05-2.67,0-3.9-0.46
	c-1.91-0.82-3.7-1.37-5.52-1.59c-5.26-0.62-10.52-1.19-15.8-1.58c-1.78-0.13-3.6,0.34-5.81,0.56c-2.98-0.67-5.56-1.37-8.35-2.39
	c-0.98-0.41-1.74-0.48-2.88-0.53c-1.34-0.21-2.3-0.45-3.32-0.99c-0.76-0.31-1.47-0.33-2.53-0.33c-0.81-0.14-1.25-0.3-1.79-0.82
	c-2.55-0.69-5.02-1.02-7.89-1.33c-1.17-0.16-1.95-0.34-2.78-0.81c-0.77-0.26-1.48-0.24-2.61-0.2c-2.61-0.51-4.8-1.04-7.03-1.86
	c-0.75-0.34-1.45-0.39-2.51-0.41c-0.8-0.13-1.25-0.28-1.73-0.82c-0.73-1.06-1.31-2.04-2.13-2.34c-4.62-1.68-9.27-3.26-13.96-4.74
	c-1.97-0.62-4.05-0.88-6.41-1.31c-1.3-0.5-2.27-1.01-3.28-1.89c-3.77-2.17-7.51-3.97-11.61-5.84c-3.48-1.94-6.6-3.81-9.8-6.07
	c-0.96-0.7-1.84-1.01-3.01-1.38c-0.6-0.29-0.92-0.51-1.33-0.91c-0.28-0.37-0.51-0.49-1.05-0.6c-0.51-0.35-0.76-0.62-1.04-1.27
	c-1.08-0.85-2.12-1.33-3.5-1.91c-2.25-1.49-4.15-2.88-6.18-4.51c-0.46-0.39-0.79-0.54-1.44-0.77c-1.5-1.09-2.68-2.09-3.88-3.49
	c-0.88-0.79-1.73-1.19-2.88-1.66c-1.02-0.79-1.74-1.49-2.45-2.58c-2.1-3.27-4.21-6.16-5.95-9.16c1.58-0.38,2.79-0.65,4.46-0.88
	c6.92-1.24,13.43-2.35,19.83-3.91c1.4-0.34,3.41-2.3,3.42-3.53c0.14-19.07-0.01-38.13,0.07-57.64c0.05-2.28-0.05-4.13-0.01-6.35
	c0.05-3.7-0.05-7.02,0.01-10.79c0.06-2.28-0.04-4.12,0.01-6.44c0.16-16.11,0.16-31.73,0.16-47.32c26.23-1.6,51.36-1.46,73.09,15.66
	c11.85-25.78,18.84-51.26,20.27-79.9c-27.98,24.19-60.73,19.53-93.59,19.36c0-10.93,0-21.23,0.16-32.02
	c0.06-7.64-0.03-14.81,0.03-22.42c1.02-2.16,1.89-3.87,3.24-5.42c31.86,0.21,63.25,0.24,94.63,0.4c2.82,0.01,4.23-0.86,5.76-3.35
	c6.79-11.01,13.9-21.82,21.04-32.62c2.27-3.43,4.95-6.6,8.29-11c-14.89-5.56-28.59-10.67-42.57-15.96c-2.3-0.59-4.33-1-6.79-1.46
	c-16.06-3.17-31.48-7.68-47.89-7.43c-0.82-0.37-1.42-0.58-2.41-1.1c-5.11-0.53-9.81-0.75-14.84-1.13c-0.79-0.1-1.26-0.03-2.13-0.15
	c-6.22-0.2-12.03-0.22-18.29-0.39c-2.32-0.06-4.2,0.04-6.5,0.01c-1.91-0.05-3.38,0.02-5.24-0.08c-1.21-0.1-2.03-0.03-3.2-0.1
	c-0.82-0.07-1.3-0.01-1.79,0.06c-3.26-0.42-6.52-0.84-10.26-1.67c4.43-4.81,9.19-9.38,14.27-13.57c6.06-5.01,12.4-9.69,18.92-14.6
	c1.19-0.63,2.07-1.16,3.36-1.65c4.01-2.17,7.42-4.84,11.25-6.53c12.77-5.65,25.7-10.95,38.92-16.38c0.8-0.18,1.24-0.38,2.08-0.55
	C204.83,42.78,210.39,41.33,215.95,39.88z"/>
<path fill="#1E2424" d="M345.02,272.16c-2.05-3.93-4.1-7.87-5.81-12.18c1.11-1.14,2.58-1.96,2.52-2.64
	c-0.33-3.73-1.17-7.4-1.6-11.12c-0.9-7.7-2.4-15.43-2.22-23.12c0.11-4.62,2.19-9.62,4.67-13.65c3.53-5.72,3.41-9.75-2.42-13.3
	c-2.66-1.62-5.7-2.63-8.79-4.02c0-3.44-1.22-7.69,0.32-10.34c1.82-3.12,6.02-4.86,9.25-7.23c4.04,2.39,5.01,9.54,11.82,7.94
	c7.49,14.06,14.99,28.12,23.1,43.35c12.39-23.91,24.16-46.63,36.52-70.48c12.1,10.28,23.69,20.11,36.67,31.14
	c-0.77-8.18-1.44-15.27-2.07-22.79c2.47-0.79,4.91-1.48,7.34-1.44c5.77,0.1,8.02,3.31,7.54,9.05c-0.23,2.72,1,5.53,1.11,8.31
	c0.16,4.33,0.05,8.67-0.19,13c-0.21,3.89-0.7,7.77-1.14,11.64c-0.18,1.57-0.57,3.11-1.14,5.35c-6.4,3.53-12.55,6.32-18.61,9.3
	c-1.77,0.87-3.82,1.91-4.83,3.46c-9.79,15.06-19.29,30.31-29.1,45.35c-2.16,3.32-2.12,5.92-0.05,9.18
	c8.51,13.35,16.95,26.74,25.17,40.26c3.84,6.31,7.52,12.47,15.8,13.3c-1.62,1.26-2.98,2.72-4.52,2.92c-4.89,0.65-9.85,1.1-14.78,1.1
	c-3.93,0-5.59,1.43-5.24,5.35c0.37,4.16-0.68,7.59-4.53,10.06c-1.11,0.71-1.96,3.19-1.6,4.48c0.42,1.49,2.15,2.81,3.61,3.75
	c1.12,0.72,2.68,0.92,4.07,1.03c3.97,0.32,4.4,2.29,2.74,5.39c-1.6-0.03-3.22,0.11-4.78-0.11c-8.06-1.15-8.11-1.18-8.04,7.16
	c0.02,2.99,0.51,5.99,0.41,8.97c-0.03,1.07-1.15,2.1-2.16,3.19c-5.35-7.96-10.46-15.86-15.23-23.98
	c-7.65-13.05-15.07-26.23-23.44-40.85c-10.71,19.83-20.74,38.39-31.45,57.17c-1.69,0.74-2.68,1.26-3.68,1.78
	c0.64,0.58,1.28,1.16,1.92,1.74c-0.59,1.26-1.19,2.53-2.45,4.03c-3.06,1.36-5.43,2.53-7.84,3.6c-3.49,1.55-6.21,0.33-7.07-3.15
	c-1.2-4.89-4.24-5.61-8.65-5.77c-6.43-0.23-12.83-1.3-19.07-2.41c-0.35-6.79-0.99-13.18-1.3-19.6c-0.1-1.98,0.32-5.59,1.13-5.77
	c7.27-1.7,7.31-8.42,9.58-13.37c1.7-3.73,3.58-5.23,7.74-4.24c7.57,1.81,10.14-0.5,9.43-7.94c-0.57-6.01,0.84-7.37,6.86-6.6
	c6.13,0.78,9.06-1.65,9.2-7.88c0.12-5.34-0.25-10.71,0.16-16.02c0.17-2.2,1.25-5.12,2.91-6.24c3.25-2.21,3.74-4.92,3.36-8.24
	C345.88,277.4,345.42,274.78,345.02,272.16z"/>
<path fill="#1D2427" d="M428.65,365c1.66-3.56,1.22-5.53-2.74-5.85c-1.39-0.11-2.95-0.31-4.07-1.03c-1.46-0.94-3.19-2.26-3.61-3.75
	c-0.36-1.3,0.48-3.77,1.6-4.48c3.85-2.47,4.9-5.9,4.53-10.06c-0.35-3.91,1.3-5.35,5.24-5.35c4.93,0,9.88-0.46,14.78-1.1
	c1.53-0.2,2.9-1.66,4.96-2.94c2.12-0.05,3.7,0.13,5.14,0.68c2.75,1.04,4.19-0.03,4.98-2.24c0.51,1.1,0.92,1.79,1.29,2.89
	c-3.49,8.14-6.35,16.2-10.52,23.53c-5.19,9.12-11.46,17.62-17.27,26.39C427.73,377.27,430.64,370.71,428.65,365z"/>
<path fill="#212322" d="M200.52,403.06c-12.93-10.35-21.79-24.08-31.49-37.06c-5.39-7.22-10.05-15-14.29-23.43
	c1.18,0.4,2.42,0.69,3.54,1.21c12.52,5.77,25.02,11.61,37.56,17.34c1.24,0.57,2.73,0.6,4.42,1.13c-0.18,0.89-0.56,1.73-1.21,2.15
	c-1.91,1.21-5.64,2.34-5.59,3.34c0.2,3.54,0.6,8.22,2.89,10.24c3.8,3.36,4.42,6.84,4.3,11.27
	C200.52,393.75,200.79,398.28,200.52,403.06z"/>
<path fill="#222A2B" d="M432.92,382.08c5.81-9.17,12.08-17.67,17.28-26.79c4.17-7.32,7.04-15.39,10.57-23.91
	c2.56-6.59,5.03-12.41,7.51-18.22c1.66-2.68,3.5-5.26,4.92-8.07c1.58-3.12,2.77-6.44,4.69-10.02c1.1-0.63,1.63-0.91,2.16-1.19
	c-1.63,8.96-3.12,17.9-9.16,25.37c-2.16,2.67-3.27,6.21-4.72,9.41c-2.21,4.87-4.31,9.8-6.45,15.12c0,0.89,0,1.36-0.39,2.25
	c-1.14,1.08-2.2,1.61-2.6,2.45c-2.25,4.7-3.92,9.74-6.57,14.18c-6.21,10.4-12.87,20.54-19.34,30.78c-0.83,0.19-1.66,0.38-2.49,0.57
	c0.01-0.94-0.28-2.02,0.08-2.79C429.78,388.26,431.39,385.39,432.92,382.08z"/>
<path fill="#1F2427" d="M431.15,393.61c6.12-10.4,12.77-20.54,18.99-30.94c2.66-4.45,4.32-9.48,6.57-14.18
	c0.4-0.84,1.46-1.37,2.6-2.09c-0.7,4.73-1.44,9.61-2.98,14.24c-1.51,4.56-5.23,8.54-2.19,13.92c0.39,0.69-1.04,3.17-2.19,3.83
	c-5.56,3.18-8.41,8.14-10.71,13.87C439.1,397.58,435.15,395.71,431.15,393.61z"/>
<path fill="#F8EAD9" d="M265.87,478.95c1.08-0.65,2.1-1.74,3.24-1.89c12.25-1.57,24.73-2.04,36.73-4.7
	c12.92-2.86,25.4-7.72,38.15-12.09c1.21-0.49,2.34-0.6,4.27-0.69c1.62,0.07,2.44,0.11,3.09,0.48c-2.84,1.67-5.37,3.5-8.19,4.28
	c-16.09,4.41-32.24,8.57-48.82,12.77C284.55,477.68,275.21,478.32,265.87,478.95z"/>
<path fill="#4E210A" d="M351.52,459.74c-0.82-0.04-1.64-0.08-2.85-0.28c1.97-1.73,4.15-4.19,6.72-4.71
	c5.35-1.1,10.43-5.31,16.25-1.44c-1.03,1.1-1.96,1.55-3.3,2.15C362.46,456.98,356.99,458.36,351.52,459.74z"/>
<path fill="#262625" d="M368,463.21c0.34-1.36,1.06-2.55,2.22-4.15c2.95-1.45,6.49-1.43,5.96-5.66c2.98,0.12,3.51,0.67,3.05,3.21
	C378.2,462.37,374.41,464.74,368,463.21z"/>
<path fill="#3C3C3B" d="M406.11,410.98c1.52-0.5,2.99-0.63,4.9-0.65c-1.83,2.72-4.1,5.34-6.36,7.96c-0.5-0.33-1-0.67-1.5-1
	C404.12,415.31,405.09,413.33,406.11,410.98z"/>
<path fill="#363634" d="M375.76,453.4c0.95,4.23-2.58,4.21-5.47,5.32c-0.51-0.26-0.7-0.53-1.23-1.28c-0.29-1.05-0.3-1.59-0.31-2.13
	c0.93-0.45,1.87-0.9,2.99-1.6C373.07,453.44,374.2,453.42,375.76,453.4z"/>
<path fill="#262625" d="M368.72,468.88c0.2,1.22,0.03,2.36-0.14,3.51c-0.47-0.11-0.94-0.22-1.41-0.33
	C367.56,470.98,367.95,469.89,368.72,468.88z"/>
<path fill="#222A2B" d="M422.24,400.14c0.39-1.01,0.83-1.66,1.55-2.42c0.46,1.04,0.63,2.18,0.8,3.32
	C423.83,400.85,423.06,400.67,422.24,400.14z"/>
<path fill="#F8EAD9" d="M334.15,459.55c-0.71,0.34-1.71,0.49-2.85,0.37C332.07,459.55,332.97,459.46,334.15,459.55z"/>
<path fill="#FBFCFC" d="M459.33,328.47c-0.68,2.61-2.12,3.68-4.88,2.64c-1.44-0.54-3.01-0.73-4.97-1.05
	c-8.89-0.43-12.57-6.59-16.41-12.9c-8.23-13.52-16.67-26.91-25.17-40.26c-2.07-3.26-2.11-5.85,0.05-9.18
	c9.81-15.05,19.31-30.29,29.1-45.35c1.01-1.56,3.06-2.6,4.83-3.46c6.06-2.97,12.21-5.76,18.61-8.84c1.72-0.64,3.16-1.06,5-1.59
	c0.47,2,0.89,3.77,1.47,6.3c1.24,11.16,2.62,21.53,3.33,31.94c1.36,20.25-1.4,40.19-5.28,60.01c-0.72,2.23-1.43,4.47-2.22,7.49
	C461.59,319.5,460.46,323.99,459.33,328.47z"/>
<path fill="#1D2122" d="M465.41,306.68c3.48-19.77,6.24-39.71,4.87-59.96c-0.7-10.41-2.09-20.78-3.1-31.62
	c1.59-1.65,3.13-2.84,5.17-4.45c3.4,7.4-0.28,15.1,0.42,23.63c1.65-1.99,2.63-3.18,4.61-5.58c0.6,6.93,1.18,12.59,1.54,18.26
	c0.28,4.43-1.49,9.65,4.02,10.44c-1.79,4.34-3.24,8.24-5.03,11.97c-0.71,1.48-2.46,2.46-3.22,3.93c-0.86,1.64-1.17,3.58-1.67,5.4
	c-0.56,2.05-1.06,4.12-1.59,6.18c-0.34,1.34-1.36,2.97-0.92,3.97c2.63,6.07-2.74,10.69-2.74,16.24
	C467.78,305.61,466.5,306.12,465.41,306.68z"/>
<path fill="#2D2D2C" d="M480.19,293.53c-0.68,0.64-1.21,0.92-2.02,1.31c1.41-5.64,2.87-11.46,4.86-17.11
	c1.48-4.2,3.65-8.16,6.01-12.05C488.2,275.49,483.77,284.18,480.19,293.53z"/>
<path fill="#1D2122" d="M459.44,328.87c1.02-4.89,2.15-9.37,3.42-14.25c1.64-0.73,3.14-1.06,5.03-1.43
	c-2.09,5.78-4.56,11.59-7.08,17.78C460.36,330.67,459.95,329.97,459.44,328.87z"/>
<path fill="#2D2D2C" d="M490.56,263.05c0.37-2.76,1.08-5.59,1.78-8.43c0.62,0.22,1.24,0.43,1.86,0.65
	C493.11,257.84,492,260.4,490.56,263.05z"/>
<path fill="#1C2425" d="M103.17,101.12c-1.79,3.13-3.63,6.22-5.32,9.4c-0.57,1.07-0.39,2.91-1.18,3.42
	c-4.85,3.16-5.67,8.71-8.36,13.14c-1.22,2-3.2,3.86-5.28,4.92c-3.07,1.55-6.08,2.62-6.93,6.6c-0.21,0.99-2.33,1.79-3.71,2.26
	c-4.5,1.53-8.47,2.98-9.06,8.95c-0.44,4.48-11.74,13.22-16.45,13.46c0.1-5.92-1.03-12.38,5.35-16.32c0.83-0.52,0.96-2.19,1.93-3.71
	c4.08-2.65,7.69-4.88,7.27-9.95c1.12-2.88,3.06-5.74,3.14-8.65c0.11-3.65,1.39-6.62,4.53-6.72c7.08-0.23,7.22-5.17,8.45-9.98
	c0.55-2.13,2.3-3.97,3.57-5.9c0.85-1.28,2.74-2.63,2.58-3.7c-1.24-8.16,2.1-14.73,6.98-21.36c4.07,1.75,7.57,4.24,11.45,5.78
	c2.17,0.87,4.97,0.19,7.48,0.67c0.02,1.95,0.03,3.44,0.03,4.92c-0.02-0.02,0.01,0.03-0.32,0.04c-0.77,0.44-1.21,0.87-1.61,1.28
	c0.04-0.02,0.06,0.07-0.37-0.04c-5.37,0.2-4.99,3.94-5.34,7.63C102.28,98.76,102.73,99.94,103.17,101.12z"/>
<path fill="#1C2425" d="M198.46,44.2c-0.44,0.19-0.88,0.38-1.71,0.16c-0.91-1.19-1.84-2.68-1.88-2.65c-4.1,2.43-7.7,0.55-11.51-0.91
	c-1.25-0.48-3.41-0.05-4.48,0.8c-2.62,2.11-4.88,1.8-7.07-0.25c-1.94-1.82-3.66-3.87-5.92-6.29c-0.64,0.54-2.46,1.37-2.47,2.22
	c-0.06,5.14-3.7,6.31-7.51,7.65c-1.43,0.51-3.11,1.5-3.79,2.75c-2.94,5.43-7.02,4.71-11.87,3.17c-1.63-0.52-5.42,0.62-5.6,1.54
	c-1,4.84-4.62,7.39-7.69,10.49c-0.15,0.15,0.08,0.67,0.13,1.06c2.01,0.98,4.04,1.97,5.93,3.28c-1.48,2.25-2.81,4.17-4.3,6.18
	c-0.16,0.09-0.53,0.07-0.89,0.02c-0.6-0.08-0.84-0.11-1.08-0.56c-0.42-1.83-0.84-3.22-1.26-4.61c-0.65,0.98-1.3,1.95-2.38,2.93
	c-1.57,0-2.71,0-4.27-0.01c-5.35-1.88-10.24-2.05-15.36-0.39c-1.21,0.39-3.03-1.11-4.57-1.74c3.11-3.25,6.08-6.65,9.4-9.67
	c1.63-1.49,4.68-1.76,5.78-3.44c4.64-7.07,11.15-8.96,19.11-8.73c1.39,0.04,3.42-2.81,4.21-4.72c1.83-4.43,4.49-6.26,9.07-4.25
	c3.87,1.7,6.05-0.57,7.99-3.28c2.56-3.59,5.81-5.29,10.01-7.21c7.79-3.57,15.29-1.77,22.86-2.59c0.35-0.04,0.83,0.14,1.05-0.04
	c5.99-4.65,12.96-4.5,20.38-3.8c-1.02,1.51-2.45,2.67-4.27,3.84c-1.2,1.07-2.01,2.14-3.21,3.25c-4.92,1.53-9.45,3.02-14.36,4.63
	c0.23,3.55,3.31,2.76,5.74,2.81C200.71,36,201.65,37.31,198.46,44.2z"/>
<path fill="#1C2526" d="M198.87,44.22c2.78-6.91,1.85-8.21-6.21-8.37c-2.43-0.05-5.5,0.75-5.74-2.81c4.91-1.61,9.44-3.1,14.76-4.63
	c1.6-1.12,2.4-2.18,3.21-3.25c1.42-1.16,2.85-2.32,4.28-3.88c2.27,0.52,4.53,1.46,6.8,2.35c1.37,0.54,2.77,1.02,4.57,1.53
	c1.45,1.28,2.48,2.55,3.51,3.83c-0.08,0.47-0.17,0.94-0.25,1.41c-2.45-0.37-4.9-0.75-7.45-1.14c-0.21,2.8-0.44,6.01-0.63,9.61
	c0.05,0.39,0.07,0.73,0.16,0.87C210.39,41.33,204.83,42.78,198.87,44.22z"/>
<path fill="#1C2526" d="M98.49,69.06c1.94,0.63,3.76,2.13,4.97,1.74c5.11-1.66,10-1.48,15.4,0.76c1.57,1.98,2.67,3.59,3.75,5.19
	c-0.03,0,0-0.05-0.45-0.1c-3.5-0.86-6.55-1.66-8.45-2.16c-1.7,3.5-2.91,5.99-4.12,8.48c-2.51-0.02-5.31,0.65-7.48-0.22
	c-3.87-1.55-7.37-4.03-11.41-6.17C91.18,72.25,93.69,69.68,98.49,69.06z"/>
<path fill="#1E2425" d="M61.02,133.3c0.81,5.06-2.79,7.29-6.72,9.59C54.13,138.31,54.92,134.1,61.02,133.3z"/>
<path fill="#222625" d="M14.93,211.24c0.11,1.13-0.01,2-0.12,2.88c-0.45-0.1-0.89-0.2-1.34-0.31
	C13.87,212.87,14.29,211.92,14.93,211.24z"/>
<path fill="#242622" d="M197.66,15.14c-0.26-0.02-0.41-0.16-0.55-0.3C197.34,14.9,197.56,14.96,197.66,15.14z"/>
<path fill="#242622" d="M145.52,34.22C145.56,34.28,145.49,34.16,145.52,34.22z"/>
<path fill="#1D2122" d="M138.71,343.14c0.11,1.85,0.21,3.69-0.16,6.15c-1.04,3.65-2.07,6.7-2.07,9.74c0.01,3.94-1.67,5.34-5.35,5.54
	c-8.01,0.44-8.52,1.22-8.73,9.52c-0.14,5.63-0.43,11.28-1.15,16.86c-0.17,1.34-2.25,3.35-3.58,3.46
	c-7.23,0.59-11.36,4.95-14.85,10.64c-1.99-2.78-3.63-5.39-5.73-8.72c-0.45-0.09-2.89,0.15-3.85-0.93c-2.42-2.73-3.97-6.21-6.24-9.08
	c-3.49-4.41-4.12-11.16-10.67-13.11c-0.03-0.02-0.03-0.1-0.02-0.42c-0.35-0.78-0.71-1.24-1.06-1.73c0.02-0.02-0.03-0.04-0.1-0.28
	c-0.24-0.55-0.49-0.75-0.9-1.25c-0.16-1.16-0.26-1.93-0.36-3.21c0.12-25.09,0.32-49.67,0.36-74.25
	c0.05-34.73-0.01-69.45,0.27-104.39c0.8-1.63,1.29-3.05,1.78-4.47c-0.6-0.43-1.21-0.86-1.81-1.28c-1.87,1.88-3.73,3.76-5.96,5.84
	c-4.36,1.37-8.36,2.54-12.35,3.72c-2.39-5.75-4.59-1.32-6.84,0.16c-2.73-6.06-2.21-6.96,5.9-10.16c-1.59-7.26,2.6-13.99,9.81-17.35
	c3.29-1.53,5.76-4.77,8.82-6.92c1.39-0.98,3.84-2.14,4.88-1.55c1.45,0.81,2.68,3.12,2.86,4.9c0.32,3.24,0.15,5.95,4.72,5.99
	c6.72,0.07,6.69-0.27,6.38-7c-0.34-7.23,0.42-14.53,0.97-21.78c0.08-1.06,1.44-2.33,2.53-2.94c0.99-0.56,2.41-0.44,3.64-0.47
	c11.19-0.3,11.21-0.28,14.56-10.9c0.35-1.12,0.53-2.58,0.1-3.6c-3.35-7.87-2.31-14.34,5.54-18.89c0.2-0.12,0.16-0.67,0.24-1.41
	c0.49-0.46,0.97-0.53,1.8-0.07c1.42,1.26,2.49,2,3.5,3.17c-0.36,3.24-1.04,6.07-0.82,8.83c0.1,1.25,1.88,3.31,3.02,3.4
	c12.36,0.96,24.76,1.58,37.14,2.33c3.52,0.21,4.89-1.5,4.61-4.84c-0.24-2.93,0.34-6.21,3.78-5.45c2.25,0.5,4.15,3.5,5.75,5.71
	c0.76,1.05,0.45,2.86,0.63,4.39c1.18-0.1,1.78,0,2.2-0.22c3.36-1.72,6.53-4.04,10.07-5.1c3.54-1.06,7.5-0.63,11.21-1.28
	c7.79-1.37,8.15-1.05,7.66,6.85c-0.09,1.53,0.69,3.79,1.83,4.51c1.05,0.66,3.72,0.28,4.65-0.66c4.13-4.18,8.68-1.5,13.02-1.13
	c0.86,0.07,2.04,1.9,2.26,3.07c1.51,8.19,3.78,10.18,12.15,10.2c2.57,0.01,5.15,0,7.09,0c-1.04,5.25-1.93,9.75-2.89,14.6
	c-5.08-0.12-8.88,2.56-10.77,7.36c-3.17,8.04-5.86,10.16-14.15,10.16c-1.96,0-4.03,0.41-5.86-0.07c-6.81-1.78-15.69,1.43-19.49-8.02
	c-0.38-0.94-2.82-1.44-4.31-1.47c-6.59-0.15-13.2-0.31-19.77,0.1c-1.82,0.11-4.28,1.79-5.11,3.43c-1.54,3.03-3.44,4.18-6.71,3.95
	c-3.01-0.22-6.17-0.56-9.06,0.08c-4.59,1.01-10.11,0.07-13.38,5.45c-1.38,1.96-2.79,3.59-3.47,5.48c-0.69,1.93-1.79,4.57,1.94,5.03
	c0.1,7.16,0.19,14.33-0.25,22.02c-1.41,2.82-2.27,5.11-3.15,7.46c-6.48,1.06-6.55,1.05-7.79,7.99c-1.02,5.73-2.27,11.46-2.65,17.23
	c-0.43,6.56-0.15,13.19,0.16,19.78c0.08,1.6,1.48,3.14,2.28,4.71c0.65-0.52,1.3-1.03,1.96-1.55c0.45-2.53,0.59-5.19,1.48-7.55
	c0.52-1.36,2.26-2.26,3.45-3.37c0.95,1.19,2.37,2.26,2.73,3.61c0.53,2.02,0.54,4.25,0.34,6.35c-0.23,2.4-0.24,5.42-1.66,6.91
	c-1.06,1.11-4.22,0.22-7.2,0.22c1.03,4.89,2.05,9.95,3.17,14.98c0.68,3.04,1.43,6.07,2.34,9.06c0.62,2.06,2.18,4.01,2.24,6.04
	c0.24,9.45,0.01,18.91,0.21,28.36c0.03,1.49,1.46,2.95,2.25,4.42c0.1,1.84,0.2,3.68-0.19,6.09
	C135.44,336.35,135.02,339.88,138.71,343.14z"/>
<path fill="#FBFBF9" d="M55.92,191.75c4.27-1.43,8.26-2.6,12.97-3.92c2.26-0.07,3.8,0,5.34,0.08c0.02,34.73,0.08,69.45,0.03,104.18
	c-0.04,24.58-0.24,49.16-0.73,74.22c-1.03,0.23-1.7-0.02-2.37-0.27c-4.95-8.81-10.03-17.55-14.81-26.46
	c-7.92-14.77-11.64-30.86-14.38-47.24c-0.25-1.48-1.08-2.87-1.81-4.68c-0.85-31.1,2.22-61.33,11.64-90.71
	C52.39,195.08,54.34,193.64,55.92,191.75z"/>
<path fill="#B67849" d="M128.18,73.5c0,0,0.37,0.01,0.93-0.07c4.99-1.39,9.41-2.7,13.83-4c-6.22,4.82-12.55,9.5-18.62,14.51
	c-5.08,4.19-9.84,8.76-14.73,13.55c-0.14,0.52-0.29,0.66-1.1,0.8c-1.84-0.82-3.03-1.63-4.01-2.75c1.22-2.13,2.25-3.97,3.27-5.81
	c0,0-0.01-0.09,0.27-0.06c0.73-0.41,1.17-0.85,1.62-1.3c0,0-0.03-0.05,0.32-0.16c4.45-3.91,8.55-7.71,12.65-11.51
	c0,0-0.02,0.05,0.35-0.01C124.95,75.6,126.56,74.55,128.18,73.5z"/>
<path fill="#363634" d="M104.28,95.83c1.19,0.82,2.37,1.64,3.94,2.6c-1.26,0.81-2.91,1.48-4.81,2.42c-0.69-0.91-1.14-2.09-1.16-3.73
	C103.21,96.39,103.75,96.11,104.28,95.83z"/>
<path fill="#FC8004" d="M382.62,41.19c0.6,0.18,1.19,0.36,1.96,1.16c0.89,1.1,1.61,1.58,2.32,2.06
	c11.43,9.08,22.7,18.36,34.33,27.17c12.49,9.47,13.9,23.5,15.92,37.22c0.98,6.64,0.88,13.44,1.12,20.18
	c0.06,1.59-0.45,3.21-0.87,5.96c-4.6-6.29-8.39-11.47-12.62-17.12c-7.43-9.53-13.94-19.01-21.56-27.5
	c-5.57-6.21-12.37-11.4-19.04-16.5c-5.72-4.38-11.77-8.48-18.15-11.81c-10.43-5.45-21.05-10.66-31.97-15.03
	c-7.76-3.1-16.14-4.64-24.3-7.27c-0.52-2.66-1.33-4.93-1.37-7.21c-0.05-2.87,0.54-5.75,0.96-9.65c-0.49,0.25,0.33-0.55,1.04-0.47
	c5.42,0.61,10.88,1.14,16.22,2.2c4.89,0.97,9.61,2.76,14.49,3.83c5.59,1.22,11.11,4.98,17.02,0.97c0,0,0.47-0.01,0.86,0.34
	c1.92,2,4.12,3.4,4.82,5.33c1.31,3.61,4.06,3.39,6.77,3.5c1.55,0.06,3.12-0.39,4.69-0.62c1.27,0.51,2.55,1.03,4.03,2.21
	C380.54,40.95,381.58,41.07,382.62,41.19z"/>
<path fill="#FC8607" d="M358.04,29c-5.83,4.39-11.35,0.64-16.94-0.59c-4.88-1.07-9.6-2.86-14.49-3.83
	c-5.34-1.06-10.8-1.59-16.22-2.2c-0.72-0.08-1.53,0.73-1.04,0.47c-0.42,3.9-1.01,6.78-0.96,9.65c0.04,2.28,0.85,4.55,0.98,7.18
	c-3.69-1.01-7.03-2.39-9.99-3.82c1.86-0.59,3.33-1.13,4.8-1.67c-0.18-0.41-0.35-0.81-0.53-1.22c-1.78,1.19-5.73-2.63-6.07,2.96
	c-3.38-0.33-6.3-0.66-9.23-1c-20.4-2.03-40.81-1.81-61.55-0.55c4.34-3.57,8.89-6.91,12.95-10.76c4.67-4.43,8.99-9.23,13.29-14.03
	c2.86-3.2,5.84-5.5,10.52-4.86c12.59,1.73,25.33,2.59,37.76,5.08c13.09,2.63,26,6.38,38.77,10.38
	C346.3,22.15,352.01,25.76,358.04,29z"/>
<path fill="#E69D42" d="M288.02,35.23c3.25,0.05,6.18,0.39,9.79,0.72c0.69-0.01,1.17-0.02,1.17-0.02c3.34,1.38,6.69,2.75,10.42,4.16
	c8.5,2.26,16.88,3.8,24.64,6.91c10.92,4.36,21.54,9.58,31.97,15.03c6.37,3.33,12.43,7.44,18.15,11.81
	c6.67,5.1,13.47,10.3,19.04,16.5c7.62,8.49,14.12,17.97,21.21,27.38c0.05,0.63,0.01,0.9-0.12,1.58c-3.03-3.12-6.15-6.52-8.9-10.2
	c-16.51-22.14-37.65-38.42-62.35-50.57c-22.63-11.13-46.39-18.05-71.32-21.28c-0.33-0.04-0.64-0.31-1.23-0.79
	C282.72,35.92,285.21,35.71,288.02,35.23z"/>
<path fill="#FC8607" d="M375.16,37.57c-1.46,0.59-3.04,1.05-4.59,0.98c-2.71-0.11-5.46,0.11-6.77-3.5c-0.7-1.94-2.9-3.34-4.59-5.31
	C364.38,32,369.72,34.6,375.16,37.57z"/>
<path fill="#E69D42" d="M252.35,35.78c-3.04,0.3-6.53,0.6-10.5,0.87C244.88,36.34,248.39,36.06,252.35,35.78z"/>
<path fill="#FC8607" d="M382.4,40.92c-0.82,0.15-1.86,0.03-2.95-0.44C380.33,40.3,381.25,40.47,382.4,40.92z"/>
<path fill="#FC8607" d="M386.77,44.13c-0.59-0.2-1.3-0.68-2.01-1.51C385.39,42.79,386.02,43.31,386.77,44.13z"/>
<path fill="#FD7F05" d="M44.28,366.68c-5.1-3.19-10.19-6.39-15.66-9.66c-0.76-2.24-1.15-4.4-1.27-7.18
	c-0.61-1.58-1.48-2.53-2.35-3.49c-0.33-1.18-0.66-2.37-0.73-4.16c-0.65-4.38-1.37-8.21-2.56-11.88c-0.52-1.59-2.01-2.87-3.06-4.29
	c-0.04-1.46-0.08-2.93-0.06-5.26c-0.31-4.76-0.97-8.64-0.99-12.54c-0.01-3.33-1.69-3.86-4.34-3.63c-1.4-15.08-3.01-30.14-4.08-45.25
	c-0.4-5.61,0.49-11.31,1.19-17.44c3.65,1.98,7.39,4.02,4.07,9.26c-0.97,1.53-0.62,4.37-0.01,6.34c1.48,4.78,5.63,4.47,9.56,4.27
	c3.11,7.27,6.15,14.57,9.34,21.81c3.78,8.59,7.26,17.26,8.42,27.08c-0.94,2.29-1.48,4.07-2.18,6.35c2.62,0.21,4.17,0.33,5.71,0.45
	c0.02,8.15,3.47,15.17,7.26,22.07c4.37,7.98,8.71,15.97,13.19,23.88c1.28,2.25,3.03,4.23,4.94,6.4c0.37,0.07,0.39,0.08,0.49,0.31
	c0.29,0.52,0.54,0.72,0.9,1.18c0.08,0.83,0.13,1.3,0.15,2.12c-0.03,0.81-0.03,1.27-0.49,1.75c-6.84-1.88-13.23-3.74-19.58-5.71
	C49.5,368.67,46.91,367.62,44.28,366.68z"/>
<path fill="#C76738" d="M72.26,373.1c-0.05-0.47-0.11-0.95-0.27-2.01c-0.31-0.88-0.57-1.08-0.91-1.17c0,0-0.02-0.01-0.03-0.02
	c0.01-0.97,0.03-1.93,0.08-3.37c0.7-0.23,1.37,0.02,2.41,0.29c0.46,0.8,0.56,1.56,0.72,3c0.37,0.85,0.67,1.03,0.96,1.21
	c0,0,0.05,0.02-0.01,0.36c0.32,0.8,0.71,1.26,1.09,1.72c0,0,0,0.08,0.03,0.48c8.5,15.65,17.85,30.24,31.41,42.03
	c3.16,3.22,6.23,6.11,9.29,9.01c0.72,0.71,1.44,1.41,2.61,2.51c1.22,0.84,1.99,1.3,2.75,1.75c1.18,1,2.35,2,3.96,3.36
	c0.77,0.48,1.12,0.61,1.46,0.75c1.9,1.38,3.81,2.77,6.19,4.57c1.45,0.94,2.43,1.46,3.4,1.98c0.24,0.27,0.49,0.54,1.04,1.11
	c0.31,0.3,0.66,0.59,0.66,0.59l0.45-0.04c0.32,0.23,0.63,0.45,1.42,1.03c1.28,0.73,2.09,1.1,2.9,1.47c3.12,1.87,6.24,3.74,9.91,6.01
	c4.18,2.23,7.82,4.06,11.45,5.89c0.97,0.5,1.94,1.01,3.45,1.83c7.8,3.03,15.07,5.75,22.33,8.47c0.45,0.15,0.9,0.3,1.89,0.68
	c1.15,0.3,1.76,0.37,2.36,0.45c2.19,0.52,4.37,1.05,7.19,1.8c1.24,0.23,1.85,0.24,2.46,0.25c0.77,0.18,1.55,0.36,2.98,0.81
	c3.01,0.65,5.36,1.02,7.71,1.4c0.45,0.16,0.89,0.32,1.89,0.72c1.17,0.28,1.78,0.33,2.39,0.37c0.96,0.24,1.93,0.48,3.54,0.95
	c1.37,0.36,2.1,0.48,2.82,0.61c2.57,0.69,5.15,1.38,8.43,2.34c9.45,1.09,18.2,1.91,26.94,2.74c1.13,0.05,2.25,0.1,3.79,0.05
	c9.75-0.74,19.09-1.37,28.89-1.7c0.46,0.3,0.46,0.79,0.05,0.81c-8.36,1.05-16.31,2.09-24.7,3.17c-11.01-0.37-21.67-0.08-32.12-1.4
	c-9.41-1.19-18.58-4.21-27.89-6.28c-6.22-1.38-12.68-1.95-18.72-3.87c-14.05-4.46-27.61-9.96-40.19-18.03
	c-16.79-10.77-33.71-21.22-47.93-35.95c-5.69-7.84-13.77-13.22-18.03-21.88c-3.16-6.42-7-12.5-10.59-19.06
	C73.54,374.06,72.9,373.58,72.26,373.1z"/>
<path fill="#FC8607" d="M24.27,261.55c-4.18,0.44-8.33,0.74-9.81-4.04c-0.61-1.97-0.95-4.81,0.01-6.34
	c3.31-5.24-0.42-7.28-4.06-9.74c-0.4-3.34-0.4-6.67-0.4-10c0.56-0.16,1.12-0.32,1.68-0.49C15.97,241.06,20.24,251.19,24.27,261.55z"
	/>
<path fill="#FC8607" d="M13.28,305.02c2.65-0.66,4.33-0.13,4.34,3.2c0.02,3.89,0.68,7.78,0.99,12.1c-1.09-0.87-2.62-2.02-3.03-3.48
	C14.54,313.11,14.01,309.25,13.28,305.02z"/>
<path fill="#FC8607" d="M18.65,326.44c1.06,1,2.56,2.27,3.07,3.87c1.19,3.67,1.91,7.5,2.53,11.51
	C22.19,336.99,20.41,331.93,18.65,326.44z"/>
<path fill="#F08219" d="M45.31,317.09c-1.56,0.27-3.11,0.15-5.73-0.06c0.7-2.28,1.25-4.06,2.2-5.93
	C43.24,312.91,44.29,314.8,45.31,317.09z"/>
<path fill="#FC8607" d="M25.01,346.72c0.87,0.58,1.74,1.53,2.34,2.69C26.39,348.77,25.7,347.94,25.01,346.72z"/>
<path fill="#E34807" d="M103.17,415.99c13.91,14.55,30.82,25,47.61,35.77c12.58,8.07,26.14,13.57,40.19,18.03
	c6.04,1.92,12.5,2.49,18.72,3.87c9.31,2.07,18.48,5.09,27.89,6.28c10.46,1.32,21.11,1.03,32.24,1.82c1.64,0.79,2.69,1.49,3.8,1.58
	c9.69,0.78,19.38,1.75,29.09,2.05c6.64,0.21,13.31-0.55,20.37-0.89c1.19-0.01,1.98-0.01,3.01,0.27c1.19,0.45,2.14,0.62,3.02,1.16
	c-3.75,2.52-7.52,4.52-11.06,6.87c-1.85,1.23-3.3,3.07-4.93,4.64c-0.53,0.34-1.06,0.68-2.12,0.76c-3.71,1.09-8.32-0.33-9.67,4.51
	c0,0-0.43,0.16-1.01,0.12c-1.13,0.3-1.69,0.64-2.24,0.98c0,0-0.4,0.15-1.04,0.08c-1.86,0.62-3.07,1.31-4.29,2
	c0,0-0.46,0.16-0.96,0.19c-0.84,0.16-1.09,0.39-1.25,0.72c-0.47,0.07-0.94,0.13-1.76,0.18c-3.24,0-6.14-0.15-9,0.09
	c-18.29,1.54-36.54,2.05-54.76-0.96c-8.21-1.36-16.71-1.44-24.7-3.56c-25.26-6.68-50.35-14.05-71.91-29.75
	c-11.16-8.13-22.93-15.57-33.2-24.71c-10.62-9.45-19.78-20.54-29.49-31c-3.35-3.61-6.47-7.44-9.57-11.27
	c-0.96-1.18-1.51-2.7-1.84-4.51c2.43-0.57,4.64-1.26,6.44-0.69c2.82,0.9,5.27,2.91,8.06,3.97c4.59,1.73,11.03,1.7,13.6,4.89
	c4.15,5.15,9.34,6.98,14.71,9.43C100.73,420.55,102.42,419.59,103.17,415.99z"/>
<path fill="#E95105" d="M102.86,415.8c-0.43,3.79-2.13,4.74-5.73,3.1c-5.37-2.45-10.56-4.28-14.71-9.43
	c-2.57-3.2-9.02-3.16-13.6-4.89c-2.79-1.05-5.24-3.07-8.06-3.97c-1.8-0.57-4.01,0.12-6.46,0.3c-1.82-1.49-3.21-3.04-4.66-4.95
	c4.57-1.13,9.21-1.81,13.79-2.75c0.8-0.16,1.87-1.33,1.94-2.12c0.07-0.73-0.88-1.78-1.65-2.31c-1.89-1.3-4.13-2.16-5.84-3.64
	c-1.7-1.48-2.97-3.47-4.35-5.29c-1.43-1.9-2.74-3.89-4.16-5.81c-1.64-2.23-3.34-4.41-5.06-7c2.58,0.56,5.17,1.61,7.83,2.43
	c6.35,1.97,12.73,3.83,19.92,5.73c1.28-0.01,1.74-0.02,2.2-0.03c3.54,6.23,7.38,12.31,10.54,18.73
	C89.08,402.58,97.17,407.97,102.86,415.8z"/>
<path fill="#F08219" d="M325.85,484.48c-0.79,0-1.59,0-3.08-0.31c-3.49-0.5-6.82,0.23-8.98-1.04c-5.97-3.49-12.33-4.6-18.98-4.99
	c0,0-0.01-0.49-0.02-0.73c16.12-4.49,32.27-8.65,48.36-13.07c2.82-0.77,5.36-2.6,8.19-4.28c5.64-1.71,11.11-3.09,16.99-4.61
	c0.42,0.39,0.42,0.93,0.5,1.86c-7.88,7.39-15.73,14.51-23.84,21.33c-2.82,2.37-6.24,4.01-10.2,5.95c-1.71-0.06-2.61-0.09-3.58-0.46
	C329.38,484.02,327.62,484.25,325.85,484.48z"/>
<path fill="#C8602F" d="M331.29,484.47c0.9,0.03,1.8,0.05,3.15,0.18c-6.56,4.29-13.56,8.48-20.94,12.72
	c1.25-1.51,2.7-3.36,4.55-4.59c3.54-2.35,7.31-4.36,11.37-6.9C330.3,485.16,330.79,484.82,331.29,484.47z"/>
<path fill="#C8602F" d="M301.7,502.66c0.97-4.8,5.59-3.39,8.97-4.44C307.95,499.88,305.02,501.25,301.7,502.66z"/>
<path fill="#C8602F" d="M293.1,505.86c0.86-0.68,2.08-1.37,3.72-2C295.99,504.56,294.72,505.21,293.1,505.86z"/>
<path fill="#C8602F" d="M298.41,503.79c0.22-0.33,0.78-0.67,1.68-0.97C299.87,503.17,299.31,503.47,298.41,503.79z"/>
<path fill="#C8602F" d="M290.79,506.76c-0.1-0.3,0.15-0.53,0.75-0.71C291.64,506.35,291.39,506.59,290.79,506.76z"/>
<path fill="#1D201F" d="M138.88,325.54c-0.94-0.99-2.37-2.45-2.4-3.94c-0.21-9.45,0.03-18.91-0.21-28.36
	c-0.05-2.03-1.61-3.98-2.24-6.04c-0.9-2.98-1.66-6.01-2.34-9.06c-1.12-5.04-2.14-10.1-3.17-14.98c2.98,0,6.14,0.89,7.2-0.22
	c1.42-1.49,1.43-4.51,1.66-6.91c0.2-2.1,0.19-4.34-0.34-6.35c-0.35-1.35-1.78-2.42-2.73-3.61c-1.19,1.11-2.93,2.01-3.45,3.37
	c-0.89,2.37-1.03,5.02-1.48,7.55c-0.65,0.52-1.3,1.03-1.96,1.55c-0.79-1.57-2.2-3.11-2.28-4.71c-0.31-6.58-0.59-13.21-0.16-19.78
	c0.38-5.78,1.63-11.51,2.65-17.23c1.23-6.94,1.3-6.93,7.79-7.99c0.88-2.35,1.75-4.65,2.99-6.99c0.38,10.26,0.38,20.57,0.38,31.5
	c32.87,0.17,65.62,4.84,93.59-19.36c-1.43,28.63-8.41,54.12-20.27,79.9c-21.72-17.12-46.85-17.26-73.09-15.66
	C139.03,293.81,139.03,309.44,138.88,325.54z"/>
<path fill="#1E2221" d="M352.73,182.11c-6.77,1.98-7.74-5.16-11.78-7.56c-3.22,2.38-7.43,4.11-9.25,7.23
	c-1.54,2.65-0.32,6.9-0.32,10.34c3.09,1.39,6.12,2.4,8.79,4.02c5.84,3.55,5.95,7.58,2.42,13.3c-2.49,4.03-4.57,9.03-4.67,13.65
	c-0.18,7.69,1.31,15.42,2.22,23.12c0.44,3.72,1.27,7.4,1.6,11.12c0.06,0.68-1.41,1.51-2.58,2.28c-3.99-5.44-7.58-10.89-10.88-17
	c0.6-3.59,2.5-7.86-3.66-5.4c-3.74-5.77-7.49-11.54-10.95-17.81c0.58-2.46,0.87-4.41,1.22-6.7c-2.21,0-3.95,0-5.68,0
	c-7.82-9.71-15.47-19.57-23.53-29.08c-3.66-4.32-8.12-7.95-13.35-12.98c8.83-4.49,16.61-8.94,24.79-12.48
	c10.87-4.7,21.93-8.93,33.95-10.05c3.61-0.34,5.87,0.36,6.72,4.74c-1.56,1.68-3.27,3.6-4.34,3.29c-5.17-1.5-5.52,2.54-5.77,5.31
	c-0.1,1.16,3.12,3.8,4.72,3.7c3.53-0.2,6.99-1.71,10.48-2.68c0.41,0.75,0.83,1.5,0.95,2.81c0.48,1.43,1.26,2.28,2.03,3.14
	C348.14,172.87,350.42,177.3,352.73,182.11z"/>
<path fill="#1B1E1E" d="M140.65,168.62c2.97-5.16,8.5-4.22,13.08-5.23c2.89-0.64,6.05-0.29,9.06-0.08c3.27,0.23,5.17-0.91,6.71-3.95
	c0.83-1.64,3.29-3.31,5.11-3.43c6.57-0.41,13.18-0.25,19.77-0.1c1.5,0.04,3.94,0.53,4.31,1.47c3.8,9.45,12.68,6.23,19.49,8.02
	c1.83,0.48,3.9,0.07,5.86,0.07c8.29,0,10.98-2.12,14.15-10.16c1.9-4.8,5.69-7.48,10.77-7.36c0.96-4.84,1.85-9.35,2.89-14.6
	c-1.94,0-4.52,0.01-7.09,0c-8.37-0.03-10.64-2.02-12.15-10.2c-0.22-1.17-1.4-3-2.26-3.07c-4.34-0.37-8.9-3.05-13.02,1.13
	c-0.93,0.94-3.59,1.32-4.65,0.66c-1.14-0.71-1.92-2.98-1.83-4.51c0.48-7.9,0.13-8.22-7.66-6.85c-3.7,0.65-7.66,0.22-11.21,1.28
	c-3.55,1.06-6.71,3.38-10.07,5.1c-0.43,0.22-1.02,0.11-2.2,0.22c-0.18-1.53,0.12-3.34-0.63-4.39c-1.6-2.21-3.5-5.21-5.75-5.71
	c-3.43-0.76-4.02,2.52-3.78,5.45c0.27,3.34-1.09,5.05-4.61,4.84c-12.38-0.75-24.77-1.37-37.14-2.33c-1.14-0.09-2.93-2.15-3.02-3.4
	c-0.21-2.76,0.46-5.59,0.83-9.19c0.06-1.51,0.07-2.22,0.07-2.93c1.48-0.07,2.95-0.14,4.94,0.29c2.63,0.25,4.75,0.01,6.87-0.24
	c5.81,0.02,11.62,0.04,17.85,0.58c0.83,0.92,1.25,1.31,1.66,1.71c0.26-0.58,0.52-1.16,0.78-1.73c4.71,0.22,9.41,0.44,14.62,1.23
	c1.18,0.71,1.86,0.86,2.55,1c16.17-0.42,31.59,4.1,47.82,7.62c2.56,1.66,4.25,4.93,6.9,1.27c13.7,5.11,27.4,10.23,42.29,15.79
	c-3.34,4.4-6.03,7.56-8.29,11c-7.13,10.79-14.25,21.61-21.04,32.62c-1.54,2.49-2.94,3.36-5.76,3.35
	c-31.38-0.15-62.77-0.18-94.63-0.76C141.37,171.27,141.01,169.95,140.65,168.62z"/>
<path fill="#212322" d="M344.7,272.35c0.71,2.43,1.17,5.05,1.48,7.68c0.39,3.32-0.1,6.03-3.36,8.24c-1.66,1.13-2.74,4.05-2.91,6.24
	c-0.41,5.31-0.04,10.68-0.16,16.02c-0.14,6.23-3.06,8.66-9.2,7.88c-6.02-0.77-7.43,0.59-6.86,6.6c0.71,7.44-1.86,9.75-9.43,7.94
	c-4.16-0.99-6.04,0.51-7.74,4.24c-2.26,4.95-2.3,11.67-9.58,13.37c-0.81,0.19-1.23,3.79-1.13,5.77c0.31,6.41,0.96,12.81,1.3,19.6
	c-0.17,0.39-0.17,0.39-0.59,0.39c-1.59,0.8-2.77,1.61-3.95,2.41c-7.5-4.31-14.99-8.61-22.49-12.92c-0.27-0.82-0.54-1.64-0.8-2.46
	c1.65-0.99,3.46-1.78,4.93-2.99c10.16-8.33,20.28-16.7,30.31-25.19c1.45-1.23,2.45-3.05,3.48-4.7
	C320.16,311.18,332.27,291.86,344.7,272.35z"/>
<path fill="#1D201F" d="M103.18,405.23c3.15-5.86,7.28-10.22,14.51-10.81c1.33-0.11,3.41-2.12,3.58-3.46
	c0.72-5.58,1.01-11.23,1.15-16.86c0.2-8.31,0.71-9.08,8.73-9.52c3.68-0.2,5.35-1.6,5.35-5.54c-0.01-3.04,1.02-6.09,1.91-9.3
	c0.4,18.9,0.54,37.96,0.41,57.03c-0.01,1.23-2.02,3.19-3.42,3.53c-6.4,1.56-12.91,2.67-20.03,3.56c-2.24-1.12-3.76-2.26-5.41-2.49
	C106.15,410.83,103.99,408.86,103.18,405.23z"/>
<path fill="#1C2526" d="M133.16,66.92c-2.03-0.99-4.07-1.98-6.08-2.96c-0.06-0.4-0.28-0.92-0.13-1.06c3.07-3.1,6.7-5.65,7.69-10.49
	c0.19-0.92,3.97-2.06,5.6-1.54c4.85,1.53,8.93,2.25,11.87-3.17c0.68-1.25,2.36-2.24,3.79-2.75c3.81-1.35,7.46-2.51,7.51-7.65
	c0.01-0.85,1.83-1.67,2.47-2.22c2.26,2.42,3.98,4.47,5.92,6.29c2.2,2.05,4.45,2.36,7.07,0.25c1.06-0.86,3.23-1.28,4.48-0.8
	c3.81,1.45,7.42,3.34,11.51,0.91c0.04-0.02,0.97,1.46,1.52,2.65c-12.84,5.84-25.76,11.15-38.53,16.79
	c-3.83,1.7-7.24,4.36-11.31,6.08c-0.49-0.79-0.52-1.09-0.6-1.74c-1.09-0.47-2.13-0.6-3.54-0.69c-1.55,0.37-2.73,0.7-4.09,0.79
	c-0.78,0.27-1.37,0.79-2.36,1.31C134.76,66.91,133.96,66.92,133.16,66.92z"/>
<path fill="#212322" d="M296.96,376.32c6.41,0.71,12.81,1.79,19.24,2.02c4.41,0.16,7.45,0.88,8.65,5.77
	c0.85,3.48,3.58,4.7,7.07,3.15c2.41-1.07,4.78-2.23,7.56-3.38c-3.42,8.68-3.52,9.08-12.34,6.75c-9.7-2.56-19.18-5.97-28.99-9.67
	C297.59,378.97,297.28,377.65,296.96,376.32C296.96,376.32,296.96,376.32,296.96,376.32z"/>
<path fill="#222625" d="M102.83,405.06c1.16,3.81,3.32,5.77,7.11,6.3c1.65,0.23,3.17,1.38,4.95,2.46c-1.01,0.62-2.23,0.88-4.18,1.17
	c-1.51,0.12-2.29,0.21-3.06,0.31c-13.46-11.47-22.81-26.05-31.28-41.69c6.52,1.55,7.15,8.31,10.64,12.72
	c2.28,2.88,3.82,6.36,6.24,9.08c0.96,1.08,3.39,0.83,3.85,0.93C99.2,399.67,100.84,402.28,102.83,405.06z"/>
<path fill="#1E2424" d="M342.87,162.21c-3.48,1.25-6.93,2.76-10.47,2.96c-1.59,0.09-4.82-2.54-4.72-3.7
	c0.25-2.77,0.6-6.81,5.77-5.31c1.07,0.31,2.79-1.61,4.39-2.9c1.16,1.36,2.13,3.13,2.87,5.47c0.32,1.18,0.87,1.8,1.42,2.41
	C342.38,161.4,342.62,161.66,342.87,162.21z"/>
<path fill="#222625" d="M133.01,67.24c0.95-0.33,1.75-0.33,3.27-0.35c1.22-0.36,1.72-0.71,2.23-1.05c1.18-0.33,2.36-0.67,4.13-0.76
	c1.51,0.42,2.44,0.59,3.36,0.76c0.03,0.3,0.06,0.6,0.14,1.35c-0.83,0.98-1.71,1.51-2.9,2.14c-4.73,1.4-9.15,2.7-13.97,4.01
	C130.2,71.42,131.53,69.49,133.01,67.24z"/>
<path fill="#F8EAD9" d="M261.56,478.59c-8.64-0.41-17.39-1.23-26.43-2.34c1.5-0.48,3.33-0.96,5.1-0.83
	c5.28,0.39,10.54,0.96,15.8,1.58C257.86,477.22,259.65,477.77,261.56,478.59z"/>
<path fill="#F8EAD9" d="M191.01,465.5c-7.23-2.32-14.49-5.04-21.97-8.07c1.82,0.11,3.9,0.37,5.87,0.99
	c4.69,1.47,9.34,3.06,13.96,4.74C189.7,463.46,190.28,464.44,191.01,465.5z"/>
<path fill="#1D201F" d="M140.35,168.84c0.66,1.11,1.02,2.43,1.38,4.12c-0.86,2.07-1.73,3.78-2.76,5.94c-3.89-0.01-2.8-2.64-2.1-4.58
	C137.56,172.43,138.97,170.8,140.35,168.84z"/>
<path fill="#F8EAD9" d="M107.75,415.62c0.68-0.42,1.45-0.52,2.6-0.52c2.49,2.99,4.59,5.88,6.69,9.14
	C113.97,421.73,110.91,418.83,107.75,415.62z"/>
<path fill="#1D201F" d="M138.86,342.77c-3.84-2.89-3.41-6.42-0.48-10.22C138.81,335.75,138.91,339.07,138.86,342.77z"/>
<path fill="#1E2424" d="M309.3,213.06c1.65-0.36,3.39-0.36,5.6-0.36c-0.35,2.29-0.65,4.24-1.32,6.31
	C311.93,217.23,310.66,215.33,309.3,213.06z"/>
<path fill="#F8EAD9" d="M165.22,455.23c-3.6-1.45-7.24-3.28-11.06-5.44C157.71,451.26,161.45,453.05,165.22,455.23z"/>
<path fill="#1E2424" d="M324.61,237.46c6.17-2.7,4.27,1.56,3.64,4.79C326.81,240.92,325.71,239.31,324.61,237.46z"/>
<path fill="#1E2424" d="M296.54,376.33c0.74,1.32,1.05,2.64,1.35,4.37c-1.62-0.2-3.22-0.8-5.06-1.69
	C293.77,377.93,294.94,377.13,296.54,376.33z"/>
<path fill="#F8EAD9" d="M215.55,470.92c-2.26-0.02-4.61-0.4-7.22-1.06C210.53,469.91,213,470.24,215.55,470.92z"/>
<path fill="#313131" d="M229.38,110.95c-2.37,3.83-4.06,0.56-6.19-1.06C225.05,109.95,227.08,110.36,229.38,110.95z"/>
<path fill="#363634" d="M137.04,99.29c-1.67,0.4-3.8,0.65-6,0.51C132.84,99.33,134.71,99.23,137.04,99.29z"/>
<path fill="#212322" d="M342.49,379.46c-0.92-0.41-1.56-0.99-2.2-1.57c1-0.52,1.99-1.04,3.38-1.56
	C343.62,377.31,343.19,378.3,342.49,379.46z"/>
<path fill="#222625" d="M125.29,99.22c0.38,0.88,0.37,1.6,0.37,2.66c-1.07-0.38-2.14-1.12-3.21-2.24
	C123.26,99.19,124.09,99.12,125.29,99.22z"/>
<path fill="#1E2424" d="M345.84,168.07c-0.74-0.49-1.52-1.35-1.99-2.45C344.7,166.15,345.25,166.93,345.84,168.07z"/>
<path fill="#F8EAD9" d="M137.39,439.16c-0.94-0.14-1.92-0.66-3.03-1.49C135.27,437.83,136.31,438.31,137.39,439.16z"/>
<path fill="#F8EAD9" d="M195.25,466.73c-0.56,0.22-1.17,0.15-1.96-0.18C193.8,466.35,194.5,466.39,195.25,466.73z"/>
<path fill="#F8EAD9" d="M219.88,472.07c-0.56,0.25-1.18,0.21-1.98-0.09C218.41,471.74,219.12,471.76,219.88,472.07z"/>
<path fill="#F8EAD9" d="M204.89,468.78c-0.55,0.28-1.16,0.28-1.98,0.03C203.41,468.55,204.12,468.52,204.89,468.78z"/>
<path fill="#363634" d="M174.7,102.07c-0.45,0.02-1.13-0.12-1.91-0.53C173.29,101.48,173.88,101.69,174.7,102.07z"/>
<path fill="#1E2221" d="M342.12,160.81c-0.53-0.29-1.08-0.91-1.36-1.71C341.38,159.43,341.74,159.96,342.12,160.81z"/>
<path fill="#F8EAD9" d="M143.82,443.32c-0.74,0.01-1.55-0.36-2.54-1.02C141.98,442.31,142.86,442.62,143.82,443.32z"/>
<path fill="#F8EAD9" d="M122.38,428.48c-0.74-0.06-1.5-0.51-2.43-1.27C120.64,427.3,121.5,427.69,122.38,428.48z"/>
<path fill="#222625" d="M157.45,99.83c0.06,0.74-0.2,1.32-0.46,1.9c-0.42-0.4-0.83-0.8-1.26-1.53
	C156.2,99.8,156.66,99.73,157.45,99.83z"/>
<path fill="#F8EAD9" d="M226.08,473.59c-0.51,0.21-1.23,0.08-2.23-0.3C224.34,473.11,225.1,473.19,226.08,473.59z"/>
<path fill="#F8EAD9" d="M139.47,441.03c0.1,0.17-0.35,0.21-0.35,0.21s-0.35-0.29-0.39-0.51
	C138.96,440.54,139.19,440.66,139.47,441.03z"/>
<path fill="#F8EAD9" d="M127.7,432.74c-0.22,0.11-0.56-0.02-1.01-0.42C126.92,432.2,127.25,432.35,127.7,432.74z"/>
<path fill="#222625" d="M122.16,76.65c-3.66,3.85-7.75,7.65-12.19,11.58c-0.35-1.37-0.36-2.86-0.38-4.81
	c1.21-2.94,2.42-5.43,4.12-8.93C115.61,74.99,118.67,75.8,122.16,76.65z"/>
<path fill="#222625" d="M104.48,95.54c-0.73,0.57-1.27,0.85-2.08,1.26c-0.07-3.23-0.45-6.97,4.92-7.17
	C106.73,91.57,105.7,93.4,104.48,95.54z"/>
<path fill="#222625" d="M109.3,88.38c-0.11,0.43-0.55,0.88-1.32,1.31C108.09,89.25,108.53,88.82,109.3,88.38z"/>
<path fill="#222625" d="M127.81,73.44c-1.25,1.1-2.86,2.15-4.83,3.26c-1.46-1.55-2.56-3.15-3.71-5.13c1.1-0.37,2.24-0.37,3.87,0
	c1.52,0.83,2.55,1.29,3.58,1.75C126.97,73.34,127.21,73.36,127.81,73.44z"/>
<path fill="#1C2526" d="M126.73,72.88c-1.03-0.03-2.06-0.49-3.15-1.31c0.59-1.34,1.24-2.32,1.89-3.3
	C125.89,69.66,126.31,71.06,126.73,72.88z"/>
<path fill="#242622" d="M204.49,25.17c-0.41,1.06-1.21,2.12-2.42,3.19C202.48,27.31,203.29,26.24,204.49,25.17z"/>
<path fill="#222625" d="M74.53,187.69c-1.84,0.14-3.39,0.06-5.28-0.06c1.51-1.93,3.38-3.81,5.25-5.69c0.6,0.43,1.21,0.86,1.81,1.28
	C75.82,184.64,75.33,186.06,74.53,187.69z"/>
<path fill="#222625" d="M76.32,372.79c-0.39-0.15-0.78-0.61-1.12-1.39C75.6,371.55,75.96,372.01,76.32,372.79z"/>
<path fill="#222625" d="M75.16,370.79c-0.23,0.06-0.53-0.12-0.83-0.57C74.66,370.04,74.92,370.24,75.16,370.79z"/>
<path fill="#FC8004" d="M299.37,35.87c-0.38,0.06-0.87,0.07-1.11,0.07c-0.35-5.58,3.59-1.76,5.38-2.95
	c0.18,0.41,0.35,0.81,0.53,1.22C302.7,34.74,301.23,35.28,299.37,35.87z"/>
<path fill="#DE8938" d="M74.23,374.86c-0.41,0.34-0.87,0.35-1.68,0.34c-0.35-0.48-0.36-0.94-0.32-1.75
	C72.9,373.58,73.54,374.06,74.23,374.86z"/>
<path fill="#DE8938" d="M71.17,370.15c0.24-0.13,0.5,0.06,0.78,0.59C71.72,370.86,71.46,370.66,71.17,370.15z"/>
<path fill="#F66A0D" d="M294.4,478.16c7.07,0.37,13.43,1.48,19.39,4.97c2.16,1.26,5.48,0.54,8.58,1.04
	c-6.36,0.65-13.03,1.41-19.67,1.21c-9.71-0.3-19.4-1.27-29.09-2.05c-1.1-0.09-2.16-0.79-3.36-1.63
	C278.09,480.25,286.04,479.21,294.4,478.16z"/>
<path fill="#F66A0D" d="M331.22,484.13c-0.42,0.69-0.92,1.03-1.72,1.39c-1.26-0.15-2.21-0.32-3.41-0.77
	C327.62,484.25,329.38,484.02,331.22,484.13z"/>
<g>
</g>
<g>
</g>
<g>
</g>
<g>
</g>
<g>
</g>
<g>
</g>
<g>
</g>
<g>
</g>
<g>
</g>
<g>
</g>
<g>
</g>
<g>
</g>
<g>
</g>
<g>
</g>
<g>
</g>
</svg>
