<?xml version="1.0" encoding="utf-8"?>
<!-- Generator: Adobe Illustrator 28.5.0, SVG Export Plug-In . SVG Version: 9.03 Build 54727)  -->
<svg version="1.1" xmlns="http://www.w3.org/2000/svg" xmlns:xlink="http://www.w3.org/1999/xlink" x="0px" y="0px"
	 viewBox="0 0 800 350" enable-background="new 0 0 800 350" xml:space="preserve">
<g id="Layer_1">
	<path fill="#1E2425" d="M790.85,221.15c-2.56,6.71-4.77,13.58-7.79,20.08c-3.02,6.5-6.85,12.63-10.5,19.25
		c5.66,0.94,11.21-0.16,16.76-1.34c0.2,0.36,0.4,0.72,0.61,1.08c-5.18,4.07-10.14,8.46-15.6,12.1c-4.44,2.95-9.55,4.89-14.25,7.49
		c-2.39,1.32-4.82,2.81-6.7,4.74c-12.71,13.02-27.38,23.13-44.28,30.2c-0.25-3.76-0.26-7.31-0.07-10.96
		c1.36-1.54,2.53-2.98,3.92-4.32c3.87,0.92,6.15-0.51,6.78-3.99c0.27-1.53-0.04-1.86-2.1-1.93c-0.94,0.01-1.62,0.02-2.37-0.21
		c-3.63-2.19-6.7,0.36-9.93,1.02c-1.55,0.32-2.87,1.8-4.54,2.83c-0.93,0.15-1.61,0.22-2.58,0.21c-2.03-0.06-3.78-0.05-5.71-0.14
		c-0.72-0.05-1.26,0-2.08-0.04c-22.17-1.52-42.53-7.83-60.9-19.85c-6.33-4.14-11.97-9.35-17.71-14.22c0.16-2.89,0-5.62,0.08-8.35
		c0.08-2.67-0.3-4.78-2.59-6.8c-1.38-1.22-1.63-4.04-1.75-6.18c-0.03-0.6,2.22-1.28,3.37-2.01c0.39-0.25,0.62-0.76,1.17-1.15
		c7.07,2.61,13.89,5.21,20.71,7.83c20.09,7.72,40.33,15.19,61.74,18.12c13.69,1.88,27.61,2.12,41.4,3.32
		c-0.62,1.42-1.2,2.61-1.79,3.81c0.3,0.2,0.6,0.4,0.9,0.61c1.37-1.58,2.74-3.17,4.26-4.89c2.21-2.19,4.27-4.23,6.36-6.07
		c0.49,0.32,0.96,0.43,1.42,0.54c-0.1-0.69-0.21-1.37-0.31-2.29c-0.63-1.16-1.19-2.15-1.9-3.02c-1.41-1.73-2.91-3.4-4.14-5.12
		c0.61-0.66,1.28-1.28,1.3-1.93c0.06-1.8-0.24-3.61-0.25-5.42c-0.04-5.04-0.02-5.02,4.85-4.32c0.95,0.14,1.93,0.05,2.89,0.34
		c1.2,3.45-0.55,7.4,2.58,10.31c-0.93,2-1.9,3.73-2.74,5.53c-0.22,0.47-0.04,1.12-0.05,1.69c0.5-0.12,1-0.23,1.72-0.25
		c2.42,1.26,4.8,2.39,6.09-0.82c1.39-3.46,3.11-6.46,6.47-8.38c0.7-0.4,1.56-1.89,1.32-2.31c-1.83-3.25,0.41-5.66,1.32-8.41
		c0.93-2.79,1.37-5.74,2.03-8.84c0-0.5,0-0.79,0.23-1.1c1.39-1.35,2.61-2.64,3.71-4.02c2.45-3.07,1.87-7.76,5.48-10.25
		c1.84-1.27,2.23-3.1,2.31-5.31c0.09-2.36-0.19-5.16,3.07-6.88c-0.23,1.97-0.72,3.54-0.51,5.02c0.42,2.99,1.56,5.9,1.8,8.89
		C784.85,220.84,784.96,221.12,790.85,221.15 M713.14,302.85c-0.24,0.66-0.48,1.31-0.71,1.96c0.28,0.07,0.57,0.13,0.85,0.2
		C713.38,304.32,713.49,303.63,713.14,302.85z"/>
	<path fill="#1F2427" d="M790.98,220.95c-6.02,0.17-6.13-0.11-6.59-5.89c-0.24-2.99-1.38-5.9-1.8-8.89
		c-0.21-1.47,0.28-3.05,0.51-5.02c-3.26,1.72-2.98,4.51-3.07,6.88c-0.08,2.2-0.46,4.04-2.31,5.31c-3.61,2.48-3.03,7.18-5.48,10.25
		c-1.1,1.38-2.32,2.67-3.71,3.77c1.07-3.19,2.34-6.16,3.67-9.11c0.88-1.94,1.55-4.07,2.85-5.68c3.65-4.51,4.55-9.91,5.62-15.53
		c2.16-5.65,4.83-10.89,5.34-16.81c-1.42,2.35-2.73,4.74-3.63,7.27c-1.2,3.41-2.08,6.93-3.28,10.54c-0.99,2.09-1.71,4.1-2.66,5.98
		c-0.85,1.69-1.97,3.25-3.2,4.89c-1.14,0.22-2.05,0.42-3,0.38c0.39-1.59,0.82-2.94,1.5-4.31c0.66-0.34,1.43-0.65,1.43-0.96
		c0-3.35,3.25-6.14,1.66-9.81c-0.26-0.61,0.35-1.59,0.56-2.4c0.32-1.24,0.62-2.49,0.96-3.73c0.3-1.1,0.49-2.27,1.01-3.26
		c0.46-0.89,1.52-1.48,1.95-2.37c1.08-2.25,1.95-4.6,3.04-7.23c-3.33-0.47-2.26-3.63-2.43-6.3c-0.22-3.42-0.57-6.84-0.93-11.02
		c-1.2,1.45-1.79,2.17-2.78,3.37c-0.43-5.15,1.8-9.8-0.25-14.27c-1.24,0.97-2.16,1.69-3.22,2.22c-0.39-1.26-0.64-2.33-0.92-3.54
		c-1.11,0.32-1.98,0.58-2.84,0.55c0.18-1.22,0.41-2.15,0.52-3.1c0.27-2.34,0.56-4.68,0.69-7.03c0.14-2.61,0.21-5.24,0.11-7.85
		c-0.06-1.68-0.81-3.38-0.67-5.02c0.29-3.47-1.07-5.4-4.55-5.46c-1.47-0.03-2.94,0.39-4.55,0.42c-1.76-4.15-3.37-8.11-4.82-12.25
		c1.82-7.53,1.63-14.94,0.37-22.26c-0.92-5.34-2.51-10.57-3.79-15.86c0.61,0.34,1.35,0.55,1.83,1.02
		c23.22,23.42,36.89,51.69,41.86,84.11c1.39,9.07,1.76,18.43,1.39,27.61C796.78,194.13,795.94,207.78,790.98,220.95 M787.14,178.57
		c0.67-1.55,1.33-3.1,2-4.65c-0.37-0.13-0.75-0.26-1.12-0.39C787.59,175.24,787.16,176.95,787.14,178.57z"/>
	<path fill="#1E2221" d="M590.46,32.86c4.55-1.77,9.11-3.54,14.03-5.12c0.76-0.07,1.15-0.32,1.55-0.57
		c8.55-1.8,17.07-3.73,25.66-5.33c3.24-0.6,6.63-0.42,10.13-0.35c-1.81,3.82-4.56,6.33-8.74,6.57c-0.65,1.59-1.53,2.98-1.75,4.46
		c-0.43,2.93-1.95,2.69-4.11,2.03c-0.9-0.27-2.05,0.26-3.34,0.43c-1.09-0.31-1.93-0.59-2.76-0.92c-1.37-0.54-2.73-1.11-4.35-1.64
		c-4.48-0.18-8.69-0.27-12.31,2.54c-0.14,0.11-0.42,0-0.64,0.02c-4.57,0.49-9.1-0.6-13.8,1.56c-2.53,1.16-4.49,2.19-6.04,4.36
		c-1.17,1.63-2.49,3.01-4.82,1.98c-2.76-1.21-4.37-0.11-5.47,2.57c-0.47,1.15-1.7,2.88-2.54,2.85c-4.81-0.14-8.74,1-11.54,5.27
		c-0.67,1.01-2.5,1.18-3.49,2.08c-2.01,1.82-3.8,3.88-5.92,5.84c-2.9,0.38-4.41,1.93-4.95,4.75c-2.71,4.03-4.73,8-3.99,12.92
		c0.1,0.65-1.05,1.46-1.56,2.23c-0.77,1.16-1.83,2.27-2.16,3.56c-0.74,2.9-0.83,5.89-5.1,6.03c-1.9,0.06-2.67,1.85-2.73,4.06
		c-0.05,1.76-1.22,3.48-2.14,5.23c-3.68,0.49-4.16,3.03-4.37,6.03c-0.36,0.9-0.44,1.91-0.94,2.22c-3.85,2.38-3.17,6.28-3.59,10.05
		c-0.8,1.38-1.58,2.51-2.19,3.73c-2.34,4.63-6.94,8.11-7.04,13.9c-0.01,0.65-0.74,1.26-1.08,1.92c-1.7,3.31-3.8,6.48-4.97,9.97
		c-1.28,3.82-3.13,5.07-6.63,3.24c0.82-10.03,3.38-19.63,6.8-29.07c6.02-16.6,14.85-31.57,26.43-44.8
		c5.83-6.66,12.32-12.8,18.92-18.71c5.42-4.85,11.44-9.01,17.55-13.32c1.01,0.44,1.68,0.72,2.61,1.12c0-1.28,0-2.08,0-2.88
		c2.88-1.64,5.76-3.29,8.97-4.78c0.94-0.31,1.54-0.76,2.14-1.22c2.82-1.39,5.65-2.78,8.81-4.03
		C589.71,33.48,590.08,33.17,590.46,32.86 M499.62,147.18c-0.25,0.57-0.5,1.14-0.75,1.71c0.27,0.06,0.54,0.12,0.81,0.19
		C499.75,148.54,499.82,148.02,499.62,147.18 M610.16,28.86c-0.13-0.03-0.27-0.07-0.41-0.1C609.84,28.84,609.93,28.93,610.16,28.86
		 M578.58,40.42C578.58,40.42,578.62,40.49,578.58,40.42z"/>
	<path fill="#222625" d="M496.68,151.55c3.59,1.62,5.44,0.38,6.72-3.45c1.17-3.49,3.27-6.67,4.97-9.97
		c0.34-0.66,1.07-1.28,1.08-1.92c0.1-5.79,4.7-9.27,7.04-13.9c0.62-1.22,1.39-2.36,2.45-3.73c2.94-0.35,9.76-5.62,10.03-8.33
		c0.36-3.61,2.75-4.48,5.47-5.41c0.83-0.28,2.11-0.77,2.24-1.36c0.52-2.41,2.33-3.05,4.19-3.98c1.26-0.64,2.45-1.76,3.19-2.97
		c1.63-2.67,2.12-6.03,5.05-7.93c0.48-0.31,0.37-1.42,0.71-2.07c1.02-1.92,2.14-3.79,3.36-5.84c1.14-0.57,2.14-0.97,3.3-1.46
		c0.26-0.17,0.35-0.26,0.72-0.33c2.25,0.27,4.22,0.52,6.18,1.02c-0.05,0.45-0.02,0.78-0.14,0.85c-4.74,2.75-5.37,6.65-3.35,11.41
		c0.26,0.61,0.15,1.5-0.06,2.17c-2.02,6.41-2.04,6.4-8.79,6.58c-0.75,0.02-1.6-0.05-2.2,0.28c-0.66,0.37-1.48,1.13-1.53,1.77
		c-0.33,4.38-0.79,8.78-0.58,13.15c0.19,4.06,0.2,4.27-3.85,4.23c-2.76-0.03-2.65-1.66-2.85-3.62c-0.11-1.07-0.85-2.46-1.73-2.96
		c-0.63-0.35-2.11,0.34-2.95,0.94c-1.85,1.3-3.34,3.25-5.32,4.18c-4.35,2.03-6.88,6.09-5.92,10.48c-4.9,1.94-5.21,2.48-3.56,6.14
		c1.35-0.89,2.69-3.57,3.97,0.06c-0.96,1.14-2.13,2.01-2.49,3.14c-5.69,17.74-7.54,35.99-7.36,54.53c-0.45-0.23-0.76-0.42-0.87-0.69
		c-4.79-11.15-9.55-22.3-14.35-33.45c-0.88-2.04-1.88-4.02-2.83-6.04C496.6,152.63,496.6,152.19,496.68,151.55z"/>
	<path fill="#DB8F3A" d="M752.22,67.84c1.32,5.25,2.91,10.48,3.83,15.83c1.26,7.33,1.45,14.74-0.57,22.16
		c-3.11-4.54-5.85-9.16-8.55-14.02c0.07-0.41,0.1-0.57,0.34-0.66c2.5,3.2,4.78,6.33,7.56,10.12c0.26-1.66,0.56-2.64,0.53-3.6
		c-0.15-4.07-0.09-8.17-0.68-12.18c-1.22-8.29-2.07-16.76-9.61-22.47c-7.02-5.32-13.83-10.93-20.8-16.58
		c-0.46-0.49-0.83-0.81-1.32-1.29c-0.47-0.27-0.83-0.38-1.32-0.65c-0.69-0.27-1.25-0.38-1.9-0.67c-0.87-0.5-1.64-0.82-2.47-1.35
		c-3.28-1.79-6.51-3.36-9.87-4.94c-0.14-0.01-0.42,0-0.47-0.23c-3.64-1.95-7.09-4.13-10.85-5.31c-7.71-2.41-15.5-4.68-23.41-6.26
		c-7.5-1.51-15.2-2.03-22.8-3.07c-2.83-0.39-4.62,1-6.35,2.94c-2.59,2.9-5.2,5.8-8.02,8.47c-2.45,2.33-5.2,4.34-7.82,6.5
		c12.52-0.76,24.85-0.9,36.97,0.5c-1.7,0.29-3.2,0.42-4.97,0.62c-5.61-0.04-10.95-0.16-16.57-0.28c-2.39,0.17-4.51,0.33-6.88,0.61
		c-5.2,0.69-10.15,1.28-15.15,1.77c-0.05-0.09-0.07-0.29,0.15-0.34c8.44-5.88,15.92-12.53,22.4-20.27c0.51-0.61,0.78-1.44,1.16-2.16
		c18.48-0.11,36.34,3.24,53.52,9.96c16.84,6.58,32.09,15.91,45.7,27.82c2.82,2.46,5.39,5.21,8.03,8.14c0.04,0.54,0.12,0.77,0.2,0.99
		C752.24,67.93,752.19,67.87,752.22,67.84z"/>
	<path fill="#DE8938" d="M496.41,153.24c1.14,1.84,2.14,3.82,3.02,5.86c4.8,11.14,9.56,22.3,14.35,33.45
		c0.12,0.27,0.42,0.45,0.97,0.92c0.67,1.1,1.17,1.94,1.32,2.83c1.65,9.89,3.9,19.6,8.68,28.52c2.88,5.38,5.95,10.65,8.92,16.27
		c-0.03,0.87-0.04,1.45-0.27,2c-1.15-1.31-2.21-2.5-2.98-3.86c-2.71-4.78-5.33-9.61-7.97-14.42c-2.29-4.17-4.37-8.41-4.37-13.56
		c-0.62-1.38-1.25-2.52-1.89-3.92c-0.95-5.88-3.05-11.12-5.33-16.3c-1.93-4.37-3.76-8.78-5.48-13.31
		c-2.43-6.25-5.01-12.37-7.59-18.48c-0.34,0.1-0.68,0.2-1.01,0.29c0,2.01,0,4.02-0.01,6.33c-0.19,3.71-0.72,7.15-0.48,10.53
		c0.64,9.12,1.62,18.21,2.46,27.58c0.44,2.56,0.76,4.89,1.39,7.14c0.25,0.88,1.17,1.58,1.79,2.62c0.02,1.15,0.05,2.03,0.07,3.17
		c1.07,3.31,2.14,6.37,3.22,9.65c0.22,0.94,0.42,1.65,0.62,2.59c0.42,0.73,0.83,1.24,1.25,2c0.24,1.56,0.47,2.86,0.71,4.41
		c1.01,3.16,2.01,6.07,3.02,8.99c-2.16-4.86-4.59-9.62-6.44-14.59c-9.06-24.38-10.75-49.63-8.54-75.31
		C495.88,154.23,496.09,153.83,496.41,153.24z"/>
	<path fill="#C8602F" d="M664.9,326.84c-8.13,0.45-16.27,1.38-24.39,1.25c-14.83-0.24-29.33-2.86-43.42-7.57
		c-19.36-6.48-36.57-16.6-51.65-30.38c-10.13-9.26-19.05-19.55-26.35-31.29c0.67-0.21,1.13-0.2,1.63,0.03
		c0.87,1.15,1.71,2.08,2.57,3.26c0.45,1.06,0.79,1.97,1.36,2.69c1.87,2.31,3.76,4.63,5.78,6.8c5.86,6.32,11.39,13.01,17.8,18.71
		c6.2,5.52,13.31,10.01,20.04,14.92c13.02,9.48,28.16,13.93,43.42,17.96c4.82,1.27,9.96,1.33,14.91,2.15
		c11,1.82,22.02,1.51,33.06,0.58c1.73-0.15,3.48-0.05,5.25,0.17C664.92,326.52,664.91,326.68,664.9,326.84z"/>
	<path fill="#262625" d="M708.82,303.89c0.01,3.55,0.01,7.09,0.02,10.86c-11.12,5.64-22.94,8.8-35.25,10.73
		c10.32-4.19,19.81-9.84,28.46-17C704.14,306.75,706.56,305.41,708.82,303.89z"/>
	<path fill="#EC5A0D" d="M520.68,258.66c-0.47-0.01-0.93-0.03-1.63-0.03c-0.23,0-0.25,0.03-0.25-0.21
		c-1.28-2.25-2.56-4.26-3.84-6.27c0,0-0.16-0.15-0.14-0.49c-0.42-0.9-0.86-1.47-1.31-2.03c0,0-0.14-0.13-0.12-0.42
		c-0.18-0.46-0.37-0.63-0.57-0.79c0,0,0.14-0.07,0.12-0.27c-0.71-1.33-1.4-2.46-2.09-3.59c0,0-0.01-0.02-0.02-0.01
		c-1.01-2.91-2.02-5.82-2.8-8.93c3.3,1.73,6.37,3.66,9.47,5.82c1.04,1.56,2.06,2.88,3.05,4.23c0.85,1.16,1.64,2.36,2.51,3.51
		c0.83,1.1,1.6,2.3,2.63,3.2c1.03,0.89,2.39,1.41,3.52,2.2c0.46,0.32,1.04,0.95,1,1.39c-0.05,0.47-0.69,1.18-1.17,1.28
		C526.27,257.78,523.47,258.19,520.68,258.66z"/>
	<path fill="#4E210A" d="M709.02,303.79c-2.46,1.62-4.87,2.96-6.96,4.69c-8.64,7.15-18.14,12.8-28.72,16.95
		c-2.66,0.6-5.26,0.99-8.15,1.39c-0.28-0.15-0.26-0.31-0.06-0.7c0.47-0.27,0.75-0.31,1.19-0.36c0.36-0.1,0.51-0.25,0.75-0.44
		c0.15,0.01,0.43-0.09,0.64-0.1c0.98-0.4,1.74-0.79,2.63-1.17c0.13,0.01,0.37-0.08,0.57-0.09c0.54-0.19,0.88-0.37,1.36-0.56
		c0.14,0,0.4-0.1,0.63-0.12c2-0.85,3.77-1.68,5.74-2.53c0.52-0.22,0.83-0.43,1.38-0.66c4.46-2.56,8.69-5.09,13.13-7.66
		c2.12-1.23,4.19-2.22,5.89-3.66c4.89-4.12,9.63-8.41,14.57-12.57c0.28,0.22,0.39,0.38,0.43,0.78c-0.47,0.93-0.9,1.65-1.33,2.37
		C711.54,300.81,710.38,302.25,709.02,303.79z"/>
	<path fill="#242622" d="M644.56,21c-0.16,0.74-0.43,1.56-0.94,2.18c-6.48,7.74-13.96,14.39-22.43,20.03
		c-0.1-2.13,0.04-4.06,0.16-5.76c1.54,0.24,3.02,0.46,4.5,0.69c0.05-0.28,0.1-0.57,0.15-0.85c-0.62-0.77-1.25-1.54-1.87-2.31
		c1.04-0.17,2.18-0.71,3.09-0.43c2.16,0.65,3.68,0.9,4.11-2.03c0.22-1.48,1.1-2.87,1.75-4.46c4.18-0.24,6.93-2.75,9.04-6.51
		C642.95,21.23,643.65,21.11,644.56,21z"/>
	<path fill="#DE8938" d="M514.95,252.38c1.29,1.77,2.57,3.78,3.83,6.03C517.5,256.64,516.22,254.62,514.95,252.38z"/>
	<path fill="#242622" d="M568.87,43.72c0.21,0.76,0.21,1.56,0.21,2.84c-0.94-0.4-1.6-0.68-2.39-1.16
		C567.26,44.73,567.96,44.25,568.87,43.72z"/>
	<path fill="#DE8938" d="M510.84,244.78c0.7,0.9,1.4,2.03,2.04,3.4C512.16,247.28,511.49,246.14,510.84,244.78z"/>
	<path fill="#242622" d="M579.99,37.68c-0.41,0.46-1.01,0.91-1.72,1.19C578.72,38.35,579.26,38.01,579.99,37.68z"/>
	<path fill="#DE8938" d="M513.51,249.84c0.45,0.34,0.89,0.91,1.29,1.7C514.34,251.2,513.92,250.63,513.51,249.84z"/>
	<path fill="#242622" d="M590.27,32.86c-0.19,0.31-0.56,0.62-1.04,0.74C589.45,33.23,589.76,33.05,590.27,32.86z"/>
	<path fill="#242622" d="M605.89,27.12c-0.25,0.3-0.64,0.55-1.15,0.59C605,27.36,605.37,27.22,605.89,27.12z"/>
	<path fill="#DE8938" d="M512.83,248.59c0.19-0.03,0.39,0.14,0.56,0.5C513.18,249.13,513.01,248.96,512.83,248.59z"/>
	<path fill="#1F2427" d="M752.39,67.7c-0.23,0.01-0.31-0.22-0.29-0.56C752.32,67.16,752.43,67.31,752.39,67.7z"/>
	<path fill="#FDFDFC" d="M621.12,43.87c4.95-0.58,9.9-1.17,15.38-1.84c2.65-0.27,4.76-0.45,6.87-0.64
		c5.34,0.12,10.68,0.24,16.46,0.48c0.63,0.22,0.81,0.38,1.01,0.4c15.05,1.95,29.39,6.13,43.06,12.85
		c14.92,7.33,27.68,17.16,37.65,30.53c1.66,2.22,3.55,4.27,5.33,6.4c2.74,4.62,5.48,9.23,8.43,13.96c1.82,4.06,3.43,8.02,5.17,12.43
		c0.53,4.73,0.93,9.01,1.4,13.95c-7.84-6.66-14.84-12.6-22.14-18.8c-7.46,14.4-14.57,28.12-22.05,42.56
		c-4.9-9.2-9.42-17.69-13.97-26.41c-1.4-2.9-2.77-5.58-4.16-8.47c-0.35-0.69-0.69-1.16-1.03-1.82c-0.25-0.65-0.5-1.1-0.76-1.72
		c-0.15-0.33-0.3-0.49-0.46-0.85c-0.23-0.51-0.44-0.83-0.68-1.37c-0.61-1.3-1.2-2.37-1.82-3.67c-0.62-2.4-1.99-2.82-4.17-2.62
		c-7.25,0.67-13.94,3.23-20.5,6.07c-4.94,2.14-9.64,4.82-14.97,7.53c3.16,3.04,5.85,5.23,8.06,7.84
		c4.86,5.74,9.49,11.69,14.26,17.77c0.82,1.37,1.59,2.52,2.41,3.9c2.32,3.72,4.58,7.2,6.83,10.82c0.66,1.12,1.33,2.09,2.02,3.29
		c2.19,3.52,4.35,6.81,6.55,10.32c1.27,2.6,2.51,4.97,3.56,7.46c-7.51,11.78-14.82,23.45-22.15,35.1c-0.63,1-1.23,2.1-2.1,2.84
		c-6.06,5.12-12.17,10.18-18.3,15.21c-0.89,0.73-1.98,1.21-2.98,1.8c0.16,0.5,0.32,0.99,0.49,1.49c4.53,2.6,9.05,5.2,13.72,7.97
		c1.11,0.53,2.08,0.9,3.2,1.42c5.94,1.99,11.66,4.04,17.52,5.59c5.32,1.41,5.39,1.16,7.85-4.22c0.53-0.89,0.88-1.65,1.41-2.52
		c0.43-0.7,0.69-1.3,1.13-2.03c6.23-11.34,12.29-22.54,18.76-34.52c5.05,8.83,9.53,16.79,14.15,24.66c2.88,4.9,5.97,9.67,8.96,14.5
		c1.46,1.69,2.96,3.36,4.37,5.09c0.71,0.87,1.28,1.86,1.73,3.08c-0.44,0.68-0.71,1.08-0.97,1.48c-2.06,2.04-4.12,4.09-6.6,6.22
		c-1.31,0.16-2.2,0.24-3.08,0.32c-13.82-0.98-27.73-1.23-41.43-3.1c-21.41-2.93-41.65-10.4-61.74-18.12
		c-6.82-2.62-13.65-5.22-20.91-7.98c-1.26-0.32-2.16-0.33-2.91-0.68c-7.57-3.46-15.12-6.99-22.68-10.47
		c-0.68-0.31-1.42-0.49-2.14-0.73c2.56,5.09,5.37,9.78,8.63,14.15c5.85,7.84,11.2,16.13,18.79,22.53
		c5.96,4.72,11.6,9.92,17.93,14.06c18.37,12.01,38.73,18.33,60.98,20.01c0.97,0.17,1.57,0.08,2.17-0.01
		c1.75-0.01,3.5-0.03,5.48,0.26c-7.42,2.71-14.95,5.64-22.75,7.37c-7.24,1.6-14.78,1.89-22.17,2.84c-0.69,0.09-1.31,0.75-2.21,1.2
		c-0.93,0.03-1.61,0-2.35-0.28c-1.15-0.49-2.23-0.83-3.33-0.96c-3.17-0.37-6.35-0.72-9.54-0.95c-1.07-0.08-2.17,0.21-3.51,0.34
		c-1.8-0.41-3.35-0.82-5.04-1.44c-0.59-0.25-1.05-0.29-1.74-0.32c-0.81-0.13-1.39-0.27-2.01-0.6c-0.46-0.19-0.88-0.2-1.53-0.2
		c-0.49-0.08-0.76-0.18-1.08-0.49c-1.54-0.41-3.03-0.61-4.76-0.8c-0.71-0.1-1.18-0.21-1.68-0.49c-0.46-0.16-0.89-0.14-1.57-0.12
		c-1.58-0.31-2.9-0.63-4.24-1.12c-0.45-0.2-0.88-0.23-1.51-0.25c-0.49-0.08-0.76-0.17-1.05-0.5c-0.44-0.64-0.79-1.23-1.29-1.41
		c-2.79-1.01-5.6-1.97-8.43-2.86c-1.19-0.37-2.45-0.53-3.87-0.79c-0.79-0.3-1.37-0.61-1.98-1.14c-2.28-1.31-4.54-2.4-7.01-3.52
		c-2.1-1.17-3.99-2.3-5.91-3.66c-0.58-0.42-1.11-0.61-1.82-0.83c-0.37-0.17-0.56-0.31-0.8-0.55c-0.17-0.23-0.31-0.3-0.63-0.36
		c-0.31-0.21-0.46-0.38-0.63-0.77c-0.65-0.52-1.28-0.8-2.11-1.16c-1.36-0.9-2.51-1.74-3.73-2.72c-0.28-0.24-0.47-0.32-0.87-0.46
		c-0.91-0.66-1.62-1.26-2.34-2.11c-0.53-0.48-1.05-0.72-1.74-1c-0.61-0.48-1.05-0.9-1.48-1.56c-1.27-1.97-2.54-3.72-3.59-5.53
		c0.95-0.23,1.68-0.39,2.69-0.53c4.18-0.75,8.11-1.42,11.97-2.36c0.84-0.21,2.06-1.39,2.07-2.13c0.08-11.51-0.01-23.02,0.04-34.8
		c0.03-1.38-0.03-2.49-0.01-3.83c0.03-2.23-0.03-4.24,0-6.51c0.03-1.38-0.03-2.49,0.01-3.89c0.09-9.73,0.09-19.16,0.09-28.57
		c15.84-0.96,31.01-0.88,44.13,9.45c7.16-15.57,11.38-30.95,12.24-48.24c-16.89,14.61-36.67,11.79-56.51,11.69
		c0-6.6,0-12.82,0.1-19.33c0.04-4.61-0.02-8.94,0.02-13.54c0.62-1.3,1.14-2.33,1.96-3.27c19.24,0.13,38.19,0.15,57.14,0.24
		c1.7,0.01,2.55-0.52,3.48-2.02c4.1-6.65,8.4-13.18,12.7-19.69c1.37-2.07,2.99-3.98,5.01-6.64c-8.99-3.36-17.26-6.44-25.7-9.64
		c-1.39-0.35-2.61-0.6-4.1-0.88c-9.7-1.91-19.01-4.64-28.91-4.48c-0.5-0.23-0.86-0.35-1.45-0.66c-3.08-0.32-5.93-0.45-8.96-0.68
		c-0.48-0.06-0.76-0.02-1.29-0.09c-3.75-0.12-7.26-0.13-11.04-0.24c-1.4-0.03-2.53,0.02-3.93,0.01c-1.15-0.03-2.04,0.01-3.16-0.05
		c-0.73-0.06-1.23-0.02-1.93-0.06c-0.5-0.04-0.79,0-1.08,0.03c-1.97-0.25-3.94-0.51-6.19-1.01c2.67-2.9,5.55-5.66,8.61-8.19
		c3.66-3.02,7.49-5.85,11.42-8.82c0.72-0.38,1.25-0.7,2.03-1c2.42-1.31,4.48-2.92,6.79-3.94c7.71-3.41,15.51-6.61,23.5-9.89
		c0.48-0.11,0.75-0.23,1.26-0.33C614.41,45.62,617.77,44.75,621.12,43.87z"/>
	<path fill="#1E2424" d="M699.06,184.12c-1.24-2.38-2.48-4.75-3.51-7.35c0.67-0.69,1.56-1.18,1.52-1.6c-0.2-2.25-0.7-4.47-0.97-6.72
		c-0.55-4.65-1.45-9.32-1.34-13.96c0.06-2.79,1.32-5.81,2.82-8.24c2.13-3.45,2.06-5.89-1.46-8.03c-1.61-0.98-3.44-1.59-5.3-2.43
		c0-2.08-0.74-4.64,0.19-6.24c1.1-1.89,3.64-2.93,5.58-4.37c2.44,1.45,3.02,5.76,7.13,4.79c4.52,8.49,9.05,16.98,13.95,26.17
		c7.48-14.44,14.59-28.15,22.05-42.56c7.31,6.2,14.3,12.14,22.14,18.8c-0.47-4.94-0.87-9.22-1.25-13.76
		c1.49-0.48,2.97-0.89,4.43-0.87c3.48,0.06,4.84,2,4.55,5.46c-0.14,1.64,0.61,3.34,0.67,5.02c0.1,2.61,0.03,5.24-0.11,7.85
		c-0.13,2.35-0.42,4.69-0.69,7.03c-0.11,0.95-0.34,1.88-0.69,3.23c-3.86,2.13-7.58,3.82-11.24,5.61c-1.07,0.52-2.31,1.15-2.92,2.09
		c-5.91,9.09-11.65,18.3-17.57,27.38c-1.31,2.01-1.28,3.58-0.03,5.54c5.14,8.06,10.23,16.14,15.2,24.31
		c2.32,3.81,4.54,7.53,9.54,8.03c-0.98,0.76-1.8,1.64-2.73,1.76c-2.95,0.39-5.94,0.67-8.92,0.67c-2.38,0-3.37,0.87-3.16,3.23
		c0.22,2.51-0.41,4.58-2.73,6.08c-0.67,0.43-1.18,1.92-0.96,2.71c0.25,0.9,1.3,1.7,2.18,2.26c0.68,0.44,1.62,0.56,2.46,0.62
		c2.4,0.19,2.66,1.38,1.66,3.26c-0.96-0.02-1.94,0.07-2.89-0.07c-4.87-0.69-4.89-0.71-4.85,4.32c0.01,1.81,0.31,3.62,0.25,5.42
		c-0.02,0.64-0.69,1.27-1.3,1.93c-3.23-4.8-6.32-9.58-9.19-14.48c-4.62-7.88-9.1-15.84-14.15-24.66
		c-6.47,11.97-12.52,23.18-18.99,34.52c-1.02,0.45-1.62,0.76-2.22,1.07c0.39,0.35,0.77,0.7,1.16,1.05
		c-0.36,0.76-0.72,1.52-1.48,2.43c-1.85,0.82-3.28,1.53-4.73,2.17c-2.11,0.94-3.75,0.2-4.27-1.9c-0.73-2.95-2.56-3.39-5.22-3.48
		c-3.88-0.14-7.74-0.79-11.51-1.45c-0.21-4.1-0.6-7.96-0.79-11.83c-0.06-1.2,0.19-3.37,0.68-3.49c4.39-1.03,4.42-5.08,5.78-8.07
		c1.03-2.25,2.16-3.16,4.67-2.56c4.57,1.09,6.12-0.3,5.69-4.79c-0.34-3.63,0.51-4.45,4.14-3.99c3.7,0.47,5.47-1,5.55-4.76
		c0.07-3.22-0.15-6.47,0.1-9.67c0.1-1.33,0.75-3.09,1.76-3.77c1.96-1.33,2.26-2.97,2.03-4.98
		C699.58,187.28,699.3,185.7,699.06,184.12z"/>
	<path fill="#1D2427" d="M749.55,240.17c1-2.15,0.74-3.34-1.66-3.53c-0.84-0.07-1.78-0.19-2.46-0.62c-0.88-0.57-1.93-1.36-2.18-2.26
		c-0.22-0.78,0.29-2.28,0.96-2.71c2.33-1.49,2.96-3.56,2.73-6.08c-0.21-2.36,0.79-3.23,3.16-3.23c2.98,0,5.97-0.28,8.92-0.67
		c0.93-0.12,1.75-1,2.99-1.78c1.28-0.03,2.23,0.08,3.1,0.41c1.66,0.63,2.53-0.02,3.01-1.35c0.31,0.66,0.56,1.08,0.78,1.74
		c-2.11,4.91-3.84,9.78-6.35,14.21c-3.13,5.5-6.92,10.64-10.43,15.93C749,247.58,750.76,243.62,749.55,240.17z"/>
	<path fill="#212322" d="M611.81,263.15c-7.81-6.25-13.16-14.54-19.01-22.38c-3.25-4.36-6.07-9.05-8.63-14.15
		c0.71,0.24,1.46,0.42,2.14,0.73c7.56,3.49,15.11,7.01,22.68,10.47c0.75,0.34,1.65,0.36,2.67,0.68c-0.11,0.54-0.34,1.05-0.73,1.3
		c-1.15,0.73-3.41,1.41-3.37,2.01c0.12,2.14,0.36,4.96,1.75,6.18c2.3,2.03,2.67,4.13,2.59,6.8
		C611.81,257.53,611.98,260.27,611.81,263.15z"/>
	<path fill="#222A2B" d="M752.13,250.49c3.51-5.54,7.3-10.67,10.43-16.18c2.52-4.42,4.25-9.29,6.38-14.44
		c1.55-3.98,3.04-7.49,4.53-11c1-1.62,2.11-3.18,2.97-4.87c0.95-1.88,1.67-3.89,2.83-6.05c0.66-0.38,0.98-0.55,1.3-0.72
		c-0.98,5.41-1.89,10.81-5.53,15.32c-1.3,1.61-1.97,3.75-2.85,5.68c-1.34,2.94-2.6,5.92-3.9,9.13c0,0.54,0,0.82-0.24,1.36
		c-0.69,0.65-1.33,0.97-1.57,1.48c-1.36,2.84-2.36,5.88-3.97,8.56c-3.75,6.28-7.77,12.4-11.68,18.59c-0.5,0.12-1,0.23-1.5,0.35
		c0-0.57-0.17-1.22,0.05-1.69C750.23,254.22,751.21,252.49,752.13,250.49z"/>
	<path fill="#1F2427" d="M751.06,257.45c3.69-6.28,7.71-12.4,11.46-18.68c1.6-2.69,2.61-5.72,3.97-8.56
		c0.24-0.51,0.88-0.83,1.57-1.26c-0.42,2.85-0.87,5.8-1.8,8.6c-0.91,2.75-3.16,5.16-1.32,8.41c0.23,0.42-0.63,1.91-1.32,2.31
		c-3.36,1.92-5.08,4.92-6.47,8.38C755.86,259.84,753.47,258.71,751.06,257.45z"/>
	<path fill="#F8EAD9" d="M651.27,308.98c0.65-0.39,1.27-1.05,1.96-1.14c7.4-0.95,14.93-1.23,22.17-2.84
		c7.8-1.73,15.34-4.66,23.04-7.3c0.73-0.29,1.41-0.36,2.58-0.42c0.98,0.04,1.47,0.07,1.86,0.29c-1.71,1.01-3.24,2.11-4.95,2.58
		c-9.71,2.66-19.47,5.18-29.48,7.71C662.55,308.21,656.91,308.59,651.27,308.98z"/>
	<path fill="#4E210A" d="M702.98,297.37c-0.5-0.02-0.99-0.05-1.72-0.17c1.19-1.05,2.51-2.53,4.06-2.85c3.23-0.66,6.3-3.21,9.81-0.87
		c-0.62,0.66-1.18,0.94-1.99,1.3C709.59,295.71,706.28,296.54,702.98,297.37z"/>
	<path fill="#262625" d="M712.93,299.47c0.21-0.82,0.64-1.54,1.34-2.51c1.78-0.88,3.92-0.87,3.6-3.42c1.8,0.07,2.12,0.41,1.84,1.94
		C719.09,298.97,716.8,300.39,712.93,299.47z"/>
	<path fill="#3C3C3B" d="M735.94,267.94c0.92-0.3,1.81-0.38,2.96-0.39c-1.11,1.64-2.47,3.23-3.84,4.81c-0.3-0.2-0.6-0.4-0.9-0.61
		C734.74,270.55,735.33,269.35,735.94,267.94z"/>
	<path fill="#363634" d="M717.62,293.55c0.57,2.55-1.56,2.54-3.3,3.21c-0.31-0.15-0.42-0.32-0.74-0.77
		c-0.18-0.64-0.18-0.96-0.18-1.28c0.56-0.27,1.13-0.55,1.81-0.97C715.99,293.57,716.68,293.56,717.62,293.55z"/>
	<path fill="#262625" d="M713.37,302.89c0.12,0.73,0.02,1.43-0.08,2.12c-0.28-0.07-0.57-0.13-0.85-0.2
		C712.67,304.16,712.9,303.51,713.37,302.89z"/>
	<path fill="#222A2B" d="M745.68,261.39c0.23-0.61,0.5-1,0.94-1.46c0.28,0.63,0.38,1.32,0.48,2
		C746.64,261.82,746.18,261.71,745.68,261.39z"/>
	<path fill="#F8EAD9" d="M692.5,297.26c-0.43,0.2-1.03,0.29-1.72,0.22C691.24,297.26,691.78,297.21,692.5,297.26z"/>
	<path fill="#FBFCFC" d="M768.08,218.12c-0.41,1.58-1.28,2.22-2.94,1.6c-0.87-0.33-1.82-0.44-3-0.64c-5.37-0.26-7.59-3.98-9.91-7.79
		c-4.97-8.16-10.06-16.25-15.2-24.31c-1.25-1.97-1.28-3.53,0.03-5.54c5.92-9.09,11.66-18.29,17.57-27.38
		c0.61-0.94,1.85-1.57,2.92-2.09c3.66-1.79,7.37-3.48,11.23-5.34c1.04-0.38,1.91-0.64,3.02-0.96c0.28,1.21,0.54,2.27,0.89,3.81
		c0.75,6.74,1.58,13,2.01,19.29c0.82,12.23-0.84,24.27-3.19,36.23c-0.43,1.35-0.87,2.7-1.34,4.52
		C769.44,212.7,768.76,215.41,768.08,218.12z"/>
	<path fill="#1D2122" d="M771.75,204.96c2.1-11.94,3.77-23.98,2.94-36.2c-0.42-6.29-1.26-12.55-1.87-19.09
		c0.96-0.99,1.89-1.72,3.12-2.68c2.05,4.47-0.17,9.12,0.25,14.27c0.99-1.2,1.59-1.92,2.78-3.37c0.36,4.18,0.72,7.6,0.93,11.02
		c0.17,2.68-0.9,5.83,2.43,6.3c-1.08,2.62-1.96,4.97-3.04,7.23c-0.43,0.89-1.48,1.48-1.95,2.37c-0.52,0.99-0.71,2.16-1.01,3.26
		c-0.34,1.24-0.64,2.49-0.96,3.73c-0.21,0.81-0.82,1.79-0.56,2.4c1.59,3.67-1.65,6.45-1.66,9.81
		C773.18,204.31,772.4,204.62,771.75,204.96z"/>
	<path fill="#2D2D2C" d="M780.67,197.02c-0.41,0.38-0.73,0.55-1.22,0.79c0.85-3.4,1.73-6.92,2.94-10.33
		c0.89-2.53,2.2-4.92,3.63-7.27C785.5,186.13,782.83,191.37,780.67,197.02z"/>
	<path fill="#1D2122" d="M768.14,218.36c0.62-2.95,1.3-5.66,2.06-8.6c0.99-0.44,1.9-0.64,3.04-0.86c-1.26,3.49-2.75,7-4.27,10.74
		C768.7,219.44,768.45,219.02,768.14,218.36z"/>
	<path fill="#2D2D2C" d="M786.93,178.62c0.22-1.67,0.65-3.38,1.08-5.09c0.37,0.13,0.75,0.26,1.12,0.39
		C788.47,175.47,787.8,177.02,786.93,178.62z"/>
	<path fill="#1C2425" d="M553.03,80.85c-1.08,1.89-2.19,3.76-3.21,5.67c-0.34,0.64-0.23,1.76-0.71,2.07
		c-2.93,1.91-3.42,5.26-5.05,7.93c-0.74,1.21-1.93,2.33-3.19,2.97c-1.85,0.94-3.67,1.58-4.19,3.98c-0.13,0.6-1.4,1.08-2.24,1.36
		c-2.72,0.92-5.12,1.8-5.47,5.41c-0.27,2.7-7.09,7.98-9.93,8.13c0.06-3.57-0.62-7.48,3.23-9.85c0.5-0.31,0.58-1.32,1.17-2.24
		c2.46-1.6,4.64-2.95,4.39-6.01c0.67-1.74,1.85-3.46,1.9-5.22c0.06-2.21,0.84-4,2.73-4.06c4.28-0.14,4.36-3.12,5.1-6.03
		c0.33-1.29,1.39-2.4,2.16-3.56c0.51-0.77,1.66-1.59,1.56-2.23c-0.75-4.92,1.27-8.9,4.21-12.9c2.46,1.06,4.57,2.56,6.91,3.49
		c1.31,0.52,3,0.12,4.52,0.4c0.01,1.18,0.02,2.08,0.02,2.97c-0.01-0.01,0.01,0.02-0.2,0.02c-0.47,0.27-0.73,0.52-0.97,0.77
		c0.02-0.01,0.03,0.04-0.22-0.02c-3.24,0.12-3.01,2.38-3.23,4.61C552.49,79.42,552.76,80.14,553.03,80.85z"/>
	<path fill="#1C2425" d="M610.57,46.48c-0.26,0.12-0.53,0.23-1.03,0.1c-0.55-0.72-1.11-1.62-1.14-1.6
		c-2.47,1.47-4.65,0.33-6.95-0.55c-0.75-0.29-2.06-0.03-2.7,0.49c-1.58,1.27-2.95,1.09-4.27-0.15c-1.17-1.1-2.21-2.34-3.58-3.8
		c-0.38,0.33-1.48,0.83-1.49,1.34c-0.03,3.11-2.23,3.81-4.54,4.62c-0.87,0.31-1.88,0.9-2.29,1.66c-1.78,3.28-4.24,2.84-7.17,1.92
		c-0.99-0.31-3.27,0.38-3.38,0.93c-0.6,2.92-2.79,4.46-4.64,6.33c-0.09,0.09,0.05,0.4,0.08,0.64c1.21,0.59,2.44,1.19,3.58,1.98
		c-0.89,1.36-1.7,2.52-2.6,3.73c-0.1,0.05-0.32,0.04-0.54,0.01c-0.36-0.05-0.51-0.06-0.65-0.34c-0.25-1.1-0.51-1.94-0.76-2.79
		c-0.39,0.59-0.78,1.18-1.44,1.77c-0.95,0-1.64,0-2.58-0.01c-3.23-1.13-6.19-1.24-9.27-0.24c-0.73,0.24-1.83-0.67-2.76-1.05
		c1.88-1.96,3.67-4.02,5.68-5.84c0.99-0.9,2.83-1.06,3.49-2.08c2.8-4.27,6.73-5.41,11.54-5.27c0.84,0.02,2.07-1.7,2.54-2.85
		c1.1-2.68,2.71-3.78,5.47-2.57c2.34,1.03,3.66-0.34,4.82-1.98c1.55-2.17,3.51-3.19,6.04-4.36c4.7-2.16,9.23-1.07,13.8-1.56
		c0.21-0.02,0.5,0.08,0.64-0.02c3.62-2.81,7.83-2.72,12.31-2.29c-0.62,0.91-1.48,1.61-2.58,2.32c-0.73,0.65-1.21,1.29-1.94,1.96
		c-2.97,0.92-5.71,1.82-8.67,2.79c0.14,2.14,2,1.67,3.46,1.69C611.93,41.53,612.49,42.32,610.57,46.48z"/>
	<path fill="#1C2526" d="M610.81,46.49c1.68-4.17,1.12-4.96-3.75-5.05c-1.47-0.03-3.32,0.45-3.46-1.69c2.96-0.97,5.7-1.87,8.91-2.8
		c0.96-0.68,1.45-1.32,1.94-1.96c0.86-0.7,1.72-1.4,2.58-2.34c1.37,0.31,2.73,0.88,4.1,1.42c0.83,0.33,1.67,0.62,2.76,0.92
		c0.87,0.77,1.5,1.54,2.12,2.31c-0.05,0.28-0.1,0.57-0.15,0.85c-1.48-0.23-2.96-0.45-4.5-0.69c-0.13,1.69-0.27,3.63-0.38,5.8
		c0.03,0.23,0.04,0.44,0.1,0.53C617.77,44.75,614.41,45.62,610.81,46.49z"/>
	<path fill="#1C2526" d="M550.21,61.49c1.17,0.38,2.27,1.29,3,1.05c3.09-1,6.04-0.9,9.3,0.46c0.95,1.2,1.61,2.17,2.26,3.14
		c-0.02,0,0-0.03-0.27-0.06c-2.11-0.52-3.96-1-5.1-1.3c-1.03,2.11-1.76,3.62-2.49,5.12c-1.52-0.01-3.2,0.39-4.52-0.13
		c-2.34-0.94-4.45-2.43-6.89-3.72C545.79,63.42,547.31,61.87,550.21,61.49z"/>
	<path fill="#1E2425" d="M527.58,100.28c0.49,3.06-1.68,4.4-4.06,5.79C523.42,103.3,523.9,100.76,527.58,100.28z"/>
	<path fill="#222625" d="M499.75,147.33c0.07,0.68,0,1.21-0.07,1.74c-0.27-0.06-0.54-0.12-0.81-0.19
		C499.12,148.32,499.37,147.75,499.75,147.33z"/>
	<path fill="#242622" d="M610.09,28.93c-0.16-0.01-0.25-0.09-0.33-0.18C609.89,28.79,610.02,28.82,610.09,28.93z"/>
	<path fill="#242622" d="M578.6,40.46C578.62,40.49,578.58,40.42,578.6,40.46z"/>
	<path fill="#1D2122" d="M574.49,226.97c0.06,1.11,0.13,2.23-0.09,3.71c-0.63,2.21-1.25,4.05-1.25,5.88c0,2.38-1.01,3.23-3.23,3.35
		c-4.84,0.27-5.15,0.74-5.27,5.75c-0.08,3.4-0.26,6.81-0.69,10.18c-0.1,0.81-1.36,2.02-2.16,2.09c-4.36,0.36-6.86,2.99-8.97,6.42
		c-1.2-1.68-2.19-3.25-3.46-5.27c-0.27-0.06-1.75,0.09-2.32-0.56c-1.46-1.65-2.39-3.75-3.77-5.48c-2.11-2.66-2.49-6.74-6.44-7.92
		c-0.02-0.01-0.02-0.06-0.01-0.25c-0.21-0.47-0.43-0.75-0.64-1.04c0.01-0.01-0.02-0.02-0.06-0.17c-0.14-0.33-0.3-0.45-0.54-0.75
		c-0.1-0.7-0.16-1.17-0.22-1.94c0.07-15.15,0.2-29.99,0.22-44.83c0.03-20.97-0.01-41.93,0.17-63.03c0.48-0.99,0.78-1.84,1.08-2.7
		c-0.36-0.26-0.73-0.52-1.09-0.77c-1.13,1.13-2.25,2.27-3.6,3.52c-2.63,0.83-5.04,1.54-7.46,2.24c-1.44-3.47-2.77-0.8-4.13,0.1
		c-1.65-3.66-1.33-4.2,3.56-6.14c-0.96-4.39,1.57-8.45,5.92-10.48c1.99-0.93,3.48-2.88,5.32-4.18c0.84-0.59,2.32-1.29,2.95-0.94
		c0.88,0.49,1.62,1.88,1.73,2.96c0.19,1.95,0.09,3.59,2.85,3.62c4.06,0.04,4.04-0.17,3.85-4.23c-0.2-4.37,0.26-8.77,0.58-13.15
		c0.05-0.64,0.87-1.41,1.53-1.77c0.6-0.34,1.46-0.26,2.2-0.28c6.75-0.18,6.77-0.17,8.79-6.58c0.21-0.67,0.32-1.56,0.06-2.17
		c-2.02-4.75-1.4-8.66,3.35-11.41c0.12-0.07,0.09-0.4,0.14-0.85c0.3-0.28,0.59-0.32,1.09-0.04c0.86,0.76,1.5,1.21,2.11,1.92
		c-0.22,1.96-0.63,3.67-0.5,5.33c0.06,0.75,1.14,2,1.83,2.05c7.47,0.58,14.95,0.95,22.42,1.41c2.13,0.13,2.95-0.9,2.79-2.92
		c-0.15-1.77,0.21-3.75,2.28-3.29c1.36,0.3,2.51,2.11,3.47,3.45c0.46,0.63,0.27,1.73,0.38,2.65c0.71-0.06,1.07,0,1.33-0.13
		c2.03-1.04,3.94-2.44,6.08-3.08c2.14-0.64,4.53-0.38,6.77-0.77c4.7-0.83,4.92-0.63,4.63,4.13c-0.06,0.92,0.42,2.29,1.11,2.72
		c0.64,0.4,2.25,0.17,2.81-0.4c2.49-2.52,5.24-0.9,7.86-0.68c0.52,0.04,1.23,1.15,1.36,1.86c0.91,4.94,2.28,6.15,7.34,6.16
		c1.55,0,3.11,0,4.28,0c-0.63,3.17-1.17,5.89-1.75,8.81c-3.07-0.07-5.36,1.54-6.5,4.44c-1.92,4.85-3.54,6.14-8.54,6.14
		c-1.18,0-2.43,0.25-3.54-0.04c-4.11-1.08-9.47,0.87-11.77-4.84c-0.23-0.57-1.7-0.87-2.6-0.89c-3.98-0.09-7.97-0.19-11.94,0.06
		c-1.1,0.07-2.58,1.08-3.08,2.07c-0.93,1.83-2.08,2.52-4.05,2.38c-1.82-0.13-3.73-0.34-5.47,0.05c-2.77,0.61-6.11,0.04-8.08,3.29
		c-0.84,1.18-1.69,2.17-2.1,3.31c-0.42,1.17-1.08,2.76,1.17,3.04c0.06,4.33,0.12,8.65-0.15,13.29c-0.85,1.7-1.37,3.09-1.9,4.51
		c-3.92,0.64-3.96,0.63-4.7,4.83c-0.61,3.46-1.37,6.92-1.6,10.41c-0.26,3.96-0.09,7.97,0.1,11.94c0.05,0.97,0.89,1.9,1.37,2.84
		c0.39-0.31,0.79-0.62,1.18-0.93c0.27-1.53,0.36-3.13,0.89-4.56c0.31-0.82,1.36-1.37,2.08-2.04c0.57,0.72,1.43,1.37,1.65,2.18
		c0.32,1.22,0.33,2.57,0.21,3.84c-0.14,1.45-0.14,3.27-1,4.17c-0.64,0.67-2.55,0.13-4.35,0.13c0.62,2.95,1.24,6.01,1.91,9.05
		c0.41,1.84,0.87,3.67,1.41,5.47c0.38,1.24,1.32,2.42,1.35,3.65c0.15,5.71,0,11.42,0.13,17.12c0.02,0.9,0.88,1.78,1.36,2.67
		c0.06,1.11,0.12,2.22-0.12,3.68C572.52,222.87,572.26,225,574.49,226.97z"/>
	<path fill="#FBFBF9" d="M524.5,135.57c2.58-0.86,4.99-1.57,7.83-2.37c1.36-0.04,2.29,0,3.22,0.05c0.01,20.97,0.05,41.93,0.02,62.9
		c-0.02,14.84-0.15,29.68-0.44,44.81c-0.62,0.14-1.03-0.01-1.43-0.16c-2.99-5.32-6.06-10.6-8.94-15.97
		c-4.78-8.92-7.03-18.63-8.68-28.52c-0.15-0.9-0.65-1.73-1.09-2.83c-0.52-18.78,1.34-37.03,7.03-54.77
		C522.37,137.58,523.55,136.71,524.5,135.57z"/>
	<path fill="#B67849" d="M568.13,64.17c0,0,0.22,0.01,0.56-0.04c3.01-0.84,5.68-1.63,8.35-2.42c-3.75,2.91-7.58,5.74-11.24,8.76
		c-3.07,2.53-5.94,5.29-8.89,8.18c-0.08,0.32-0.18,0.4-0.66,0.48c-1.11-0.49-1.83-0.99-2.42-1.66c0.74-1.29,1.36-2.4,1.97-3.51
		c0,0-0.01-0.05,0.16-0.04c0.44-0.25,0.71-0.52,0.98-0.78c0,0-0.02-0.03,0.19-0.09c2.69-2.36,5.16-4.65,7.64-6.95
		c0,0-0.01,0.03,0.21,0C566.18,65.44,567.16,64.8,568.13,64.17z"/>
	<path fill="#363634" d="M553.7,77.66c0.72,0.49,1.43,0.99,2.38,1.57c-0.76,0.49-1.76,0.89-2.9,1.46c-0.42-0.55-0.69-1.26-0.7-2.25
		C553.06,77.99,553.38,77.82,553.7,77.66z"/>
	<path fill="#FC8004" d="M721.76,44.66c0.36,0.11,0.72,0.22,1.18,0.7c0.54,0.66,0.97,0.95,1.4,1.25c6.9,5.48,13.7,11.09,20.73,16.41
		c7.54,5.72,8.39,14.19,9.61,22.47c0.59,4.01,0.53,8.12,0.68,12.18c0.04,0.96-0.27,1.94-0.53,3.6c-2.78-3.8-5.06-6.92-7.62-10.34
		c-4.49-5.75-8.42-11.48-13.02-16.6c-3.36-3.75-7.47-6.89-11.49-9.97c-3.46-2.64-7.11-5.12-10.96-7.13
		c-6.3-3.29-12.71-6.44-19.3-9.07c-4.69-1.87-9.75-2.8-14.67-4.39c-0.31-1.61-0.81-2.98-0.83-4.35c-0.03-1.73,0.33-3.47,0.58-5.83
		c-0.3,0.15,0.2-0.33,0.63-0.29c3.27,0.37,6.57,0.69,9.79,1.33c2.95,0.58,5.8,1.67,8.75,2.31c3.38,0.74,6.71,3,10.27,0.58
		c0,0,0.28-0.01,0.52,0.21c1.16,1.21,2.49,2.05,2.91,3.22c0.79,2.18,2.45,2.05,4.09,2.11c0.94,0.04,1.89-0.24,2.83-0.37
		c0.77,0.31,1.54,0.62,2.43,1.34C720.5,44.51,721.13,44.59,721.76,44.66z"/>
	<path fill="#FC8607" d="M706.92,37.3c-3.52,2.65-6.85,0.39-10.23-0.35c-2.94-0.64-5.8-1.73-8.75-2.31
		c-3.23-0.64-6.52-0.96-9.79-1.33c-0.43-0.05-0.92,0.44-0.63,0.29c-0.26,2.35-0.61,4.09-0.58,5.83c0.02,1.38,0.52,2.74,0.59,4.34
		c-2.23-0.61-4.25-1.44-6.03-2.31c1.12-0.36,2.01-0.68,2.9-1.01c-0.11-0.25-0.21-0.49-0.32-0.74c-1.08,0.72-3.46-1.59-3.66,1.79
		c-2.04-0.2-3.8-0.4-5.57-0.6c-12.32-1.23-24.64-1.09-37.17-0.33c2.62-2.15,5.37-4.17,7.82-6.5c2.82-2.67,5.43-5.57,8.02-8.47
		c1.73-1.93,3.53-3.32,6.35-2.94c7.6,1.04,15.3,1.56,22.8,3.07c7.91,1.59,15.7,3.85,23.41,6.26
		C699.83,33.17,703.28,35.35,706.92,37.3z"/>
	<path fill="#E69D42" d="M664.64,41.06c1.96,0.03,3.73,0.23,5.91,0.43c0.42,0,0.71-0.01,0.71-0.01c2.02,0.83,4.04,1.66,6.29,2.51
		c5.13,1.37,10.19,2.3,14.88,4.17c6.59,2.64,13,5.78,19.3,9.07c3.85,2.01,7.5,4.49,10.96,7.13c4.03,3.08,8.13,6.22,11.49,9.97
		c4.6,5.12,8.53,10.85,12.81,16.53c0.03,0.38,0,0.54-0.07,0.95c-1.83-1.88-3.72-3.93-5.37-6.16c-9.97-13.37-22.73-23.2-37.65-30.53
		c-13.67-6.72-28.01-10.9-43.06-12.85c-0.2-0.03-0.38-0.18-0.74-0.48C661.44,41.48,662.94,41.36,664.64,41.06z"/>
	<path fill="#FC8607" d="M717.25,42.48c-0.88,0.36-1.83,0.63-2.77,0.59c-1.63-0.07-3.3,0.06-4.09-2.11
		c-0.42-1.17-1.75-2.01-2.77-3.21C710.75,39.12,713.97,40.69,717.25,42.48z"/>
	<path fill="#E69D42" d="M643.1,41.4c-1.83,0.18-3.94,0.37-6.34,0.52C638.6,41.73,640.71,41.57,643.1,41.4z"/>
	<path fill="#FC8607" d="M721.62,44.5c-0.49,0.09-1.12,0.02-1.78-0.27C720.38,44.12,720.93,44.23,721.62,44.5z"/>
	<path fill="#FC8607" d="M724.27,46.44c-0.35-0.12-0.78-0.41-1.21-0.91C723.43,45.63,723.81,45.95,724.27,46.44z"/>
	<path fill="#FD7F05" d="M517.48,241.19c-3.08-1.93-6.15-3.86-9.45-5.83c-0.46-1.35-0.69-2.65-0.77-4.34
		c-0.37-0.95-0.89-1.53-1.42-2.11c-0.2-0.71-0.4-1.43-0.44-2.51c-0.39-2.64-0.82-4.95-1.54-7.17c-0.31-0.96-1.21-1.73-1.85-2.59
		c-0.02-0.88-0.05-1.77-0.03-3.17c-0.19-2.87-0.59-5.22-0.6-7.57c-0.01-2.01-1.02-2.33-2.62-2.19c-0.84-9.1-1.82-18.2-2.46-27.32
		c-0.24-3.39,0.29-6.83,0.72-10.53c2.2,1.2,4.46,2.42,2.46,5.59c-0.58,0.93-0.38,2.64-0.01,3.83c0.89,2.89,3.4,2.7,5.77,2.58
		c1.88,4.39,3.71,8.8,5.64,13.17c2.28,5.18,4.38,10.42,5.08,16.35c-0.57,1.38-0.9,2.46-1.32,3.84c1.58,0.13,2.52,0.2,3.45,0.27
		c0.01,4.92,2.1,9.16,4.38,13.33c2.64,4.82,5.26,9.64,7.97,14.42c0.77,1.36,1.83,2.56,2.98,3.87c0.22,0.04,0.23,0.05,0.29,0.19
		c0.17,0.31,0.33,0.43,0.54,0.71c0.05,0.5,0.08,0.79,0.09,1.28c-0.02,0.49-0.02,0.77-0.3,1.06c-4.13-1.14-7.99-2.26-11.82-3.45
		C520.63,242.39,519.06,241.76,517.48,241.19z"/>
	<path fill="#C76738" d="M534.37,245.06c-0.03-0.29-0.06-0.57-0.17-1.21c-0.19-0.53-0.35-0.65-0.55-0.71c0,0-0.01-0.01-0.02-0.01
		c0.01-0.59,0.02-1.17,0.05-2.04c0.42-0.14,0.83,0.01,1.45,0.18c0.28,0.48,0.34,0.94,0.44,1.81c0.22,0.51,0.4,0.62,0.58,0.73
		c0,0,0.03,0.01-0.01,0.22c0.19,0.48,0.43,0.76,0.66,1.04c0,0,0,0.05,0.02,0.29c5.13,9.45,10.78,18.26,18.96,25.38
		c1.91,1.94,3.76,3.69,5.61,5.44c0.43,0.43,0.87,0.85,1.58,1.51c0.74,0.51,1.2,0.78,1.66,1.06c0.71,0.61,1.42,1.21,2.39,2.03
		c0.47,0.29,0.68,0.37,0.88,0.45c1.15,0.84,2.3,1.67,3.74,2.76c0.88,0.57,1.47,0.88,2.05,1.19c0.15,0.16,0.3,0.33,0.63,0.67
		c0.19,0.18,0.4,0.36,0.4,0.36l0.27-0.02c0.19,0.14,0.38,0.27,0.86,0.62c0.77,0.44,1.26,0.66,1.75,0.89
		c1.89,1.13,3.77,2.26,5.99,3.63c2.53,1.34,4.72,2.45,6.92,3.56c0.59,0.3,1.17,0.61,2.09,1.1c4.71,1.83,9.1,3.47,13.48,5.11
		c0.27,0.09,0.54,0.18,1.14,0.41c0.7,0.18,1.06,0.23,1.43,0.27c1.32,0.32,2.64,0.63,4.34,1.09c0.75,0.14,1.12,0.14,1.49,0.15
		c0.47,0.11,0.93,0.22,1.8,0.49c1.82,0.39,3.24,0.62,4.66,0.85c0.27,0.1,0.54,0.19,1.14,0.43c0.7,0.17,1.07,0.2,1.45,0.22
		c0.58,0.14,1.16,0.29,2.14,0.57c0.83,0.21,1.27,0.29,1.7,0.37c1.55,0.42,3.11,0.84,5.09,1.41c5.71,0.66,10.99,1.15,16.27,1.65
		c0.68,0.03,1.36,0.06,2.29,0.03c5.89-0.44,11.53-0.83,17.45-1.03c0.28,0.18,0.28,0.48,0.03,0.49c-5.05,0.64-9.85,1.26-14.91,1.92
		c-6.65-0.22-13.08-0.05-19.4-0.85c-5.68-0.72-11.22-2.54-16.84-3.79c-3.76-0.84-7.65-1.18-11.3-2.34
		c-8.48-2.69-16.67-6.01-24.27-10.88c-10.14-6.5-20.35-12.81-28.94-21.7c-3.44-4.73-8.32-7.98-10.89-13.21
		c-1.91-3.88-4.23-7.55-6.4-11.51C535.14,245.64,534.75,245.35,534.37,245.06z"/>
	<path fill="#FC8607" d="M505.39,177.71c-2.53,0.26-5.03,0.45-5.92-2.44c-0.37-1.19-0.58-2.9,0.01-3.83c2-3.16-0.25-4.39-2.45-5.88
		c-0.24-2.02-0.24-4.03-0.24-6.04c0.34-0.1,0.68-0.2,1.01-0.29C500.38,165.34,502.96,171.46,505.39,177.71z"/>
	<path fill="#FC8607" d="M498.76,203.96c1.6-0.4,2.61-0.08,2.62,1.93c0.01,2.35,0.41,4.7,0.6,7.3c-0.66-0.52-1.58-1.22-1.83-2.1
		C499.52,208.85,499.2,206.51,498.76,203.96z"/>
	<path fill="#FC8607" d="M502,216.89c0.64,0.6,1.54,1.37,1.85,2.33c0.72,2.22,1.15,4.53,1.53,6.95
		C504.14,223.26,503.07,220.2,502,216.89z"/>
	<path fill="#F08219" d="M518.1,211.25c-0.94,0.16-1.88,0.09-3.46-0.04c0.42-1.38,0.75-2.45,1.33-3.58
		C516.85,208.72,517.48,209.87,518.1,211.25z"/>
	<path fill="#FC8607" d="M505.84,229.14c0.52,0.35,1.05,0.93,1.41,1.62C506.67,230.38,506.26,229.87,505.84,229.14z"/>
	<path fill="#E34807" d="M553.03,270.96c8.4,8.78,18.61,15.09,28.75,21.6c7.6,4.87,15.78,8.19,24.27,10.88
		c3.65,1.16,7.54,1.5,11.3,2.34c5.62,1.25,11.16,3.08,16.84,3.79c6.31,0.8,12.75,0.62,19.47,1.1c0.99,0.48,1.63,0.9,2.29,0.96
		c5.85,0.47,11.7,1.06,17.56,1.24c4.01,0.13,8.04-0.33,12.3-0.54c0.72,0,1.2,0,1.82,0.16c0.72,0.27,1.29,0.37,1.82,0.7
		c-2.27,1.52-4.54,2.73-6.68,4.15c-1.12,0.74-1.99,1.85-2.98,2.8c-0.32,0.21-0.64,0.41-1.28,0.46c-2.24,0.66-5.02-0.2-5.84,2.72
		c0,0-0.26,0.1-0.61,0.07c-0.68,0.18-1.02,0.39-1.35,0.59c0,0-0.24,0.09-0.63,0.05c-1.12,0.38-1.86,0.79-2.59,1.21
		c0,0-0.28,0.1-0.58,0.11c-0.51,0.1-0.66,0.24-0.76,0.43c-0.28,0.04-0.57,0.08-1.06,0.11c-1.96,0-3.71-0.09-5.44,0.06
		c-11.04,0.93-22.06,1.24-33.06-0.58c-4.96-0.82-10.09-0.87-14.91-2.15c-15.25-4.03-30.4-8.48-43.42-17.96
		c-6.74-4.91-13.85-9.4-20.04-14.92c-6.41-5.71-11.94-12.4-17.8-18.71c-2.02-2.18-3.91-4.49-5.78-6.8
		c-0.58-0.71-0.91-1.63-1.11-2.72c1.47-0.34,2.8-0.76,3.89-0.41c1.7,0.54,3.18,1.76,4.86,2.4c2.77,1.05,6.66,1.02,8.21,2.95
		c2.51,3.11,5.64,4.21,8.88,5.69C551.56,273.71,552.58,273.14,553.03,270.96z"/>
	<path fill="#E95105" d="M552.84,270.85c-0.26,2.29-1.29,2.86-3.46,1.87c-3.24-1.48-6.38-2.58-8.88-5.69
		c-1.55-1.93-5.44-1.91-8.21-2.95c-1.68-0.64-3.16-1.86-4.86-2.4c-1.09-0.34-2.42,0.07-3.9,0.18c-1.1-0.9-1.94-1.84-2.81-2.99
		c2.76-0.68,5.56-1.1,8.33-1.66c0.48-0.1,1.13-0.8,1.17-1.28c0.04-0.44-0.53-1.07-1-1.39c-1.14-0.79-2.49-1.3-3.52-2.2
		c-1.03-0.89-1.79-2.09-2.63-3.2c-0.87-1.15-1.66-2.35-2.51-3.51c-0.99-1.35-2.02-2.67-3.05-4.23c1.56,0.34,3.12,0.97,4.73,1.47
		c3.83,1.19,7.69,2.31,12.03,3.46c0.77-0.01,1.05-0.01,1.33-0.02c2.14,3.76,4.46,7.44,6.36,11.31
		C544.53,262.86,549.41,266.12,552.84,270.85z"/>
	<path fill="#F08219" d="M687.48,312.32c-0.48,0-0.96,0-1.86-0.19c-2.11-0.3-4.12,0.14-5.42-0.63c-3.6-2.11-7.44-2.78-11.46-3.01
		c0,0,0-0.3-0.01-0.44c9.73-2.71,19.49-5.23,29.2-7.89c1.7-0.47,3.23-1.57,4.95-2.58c3.41-1.03,6.71-1.86,10.26-2.78
		c0.25,0.24,0.25,0.56,0.3,1.12c-4.76,4.46-9.5,8.76-14.39,12.88c-1.7,1.43-3.77,2.42-6.16,3.59c-1.03-0.04-1.58-0.05-2.16-0.28
		C689.61,312.03,688.55,312.17,687.48,312.32z"/>
	<path fill="#C8602F" d="M690.77,312.31c0.54,0.02,1.09,0.03,1.9,0.11c-3.96,2.59-8.19,5.12-12.65,7.68
		c0.75-0.91,1.63-2.03,2.75-2.77c2.14-1.42,4.41-2.63,6.87-4.17C690.17,312.72,690.47,312.52,690.77,312.31z"/>
	<path fill="#C8602F" d="M672.9,323.29c0.59-2.9,3.37-2.04,5.41-2.68C676.67,321.61,674.9,322.44,672.9,323.29z"/>
	<path fill="#C8602F" d="M667.71,325.22c0.52-0.41,1.25-0.82,2.25-1.21C669.45,324.44,668.69,324.83,667.71,325.22z"/>
	<path fill="#C8602F" d="M670.91,323.97c0.13-0.2,0.47-0.4,1.01-0.58C671.8,323.6,671.46,323.78,670.91,323.97z"/>
	<path fill="#C8602F" d="M666.32,325.77c-0.06-0.18,0.09-0.32,0.45-0.43C666.83,325.52,666.68,325.66,666.32,325.77z"/>
	<path fill="#1D201F" d="M574.59,216.35c-0.57-0.6-1.43-1.48-1.45-2.38c-0.12-5.71,0.02-11.42-0.13-17.12
		c-0.03-1.23-0.97-2.4-1.35-3.65c-0.54-1.8-1-3.63-1.41-5.47c-0.68-3.04-1.29-6.1-1.91-9.05c1.8,0,3.71,0.54,4.35-0.13
		c0.86-0.9,0.86-2.72,1-4.17c0.12-1.27,0.11-2.62-0.21-3.84c-0.21-0.81-1.07-1.46-1.65-2.18c-0.72,0.67-1.77,1.21-2.08,2.04
		c-0.54,1.43-0.62,3.03-0.89,4.56c-0.39,0.31-0.79,0.62-1.18,0.93c-0.48-0.95-1.33-1.88-1.37-2.84c-0.19-3.98-0.36-7.98-0.1-11.94
		c0.23-3.49,0.98-6.95,1.6-10.41c0.74-4.19,0.79-4.19,4.7-4.83c0.53-1.42,1.05-2.81,1.81-4.22c0.23,6.2,0.23,12.42,0.23,19.02
		c19.84,0.1,39.62,2.92,56.51-11.69c-0.86,17.29-5.08,32.68-12.24,48.24c-13.12-10.34-28.29-10.42-44.13-9.45
		C574.68,197.19,574.68,206.62,574.59,216.35z"/>
	<path fill="#1E2221" d="M703.71,129.75c-4.09,1.2-4.67-3.12-7.11-4.56c-1.95,1.43-4.49,2.48-5.58,4.37
		c-0.93,1.6-0.19,4.17-0.19,6.24c1.86,0.84,3.7,1.45,5.3,2.43c3.52,2.14,3.59,4.58,1.46,8.03c-1.5,2.43-2.76,5.45-2.82,8.24
		c-0.11,4.64,0.79,9.31,1.34,13.96c0.26,2.25,0.77,4.47,0.97,6.72c0.04,0.41-0.85,0.91-1.56,1.38c-2.41-3.28-4.58-6.57-6.57-10.26
		c0.36-2.17,1.51-4.74-2.21-3.26c-2.26-3.48-4.52-6.97-6.61-10.76c0.35-1.48,0.53-2.66,0.74-4.04c-1.33,0-2.38,0-3.43,0
		c-4.72-5.87-9.34-11.82-14.21-17.56c-2.21-2.61-4.9-4.8-8.06-7.84c5.33-2.71,10.03-5.4,14.97-7.53c6.56-2.84,13.24-5.39,20.5-6.07
		c2.18-0.2,3.55,0.22,4.06,2.86c-0.94,1.02-1.98,2.17-2.62,1.99c-3.12-0.91-3.33,1.53-3.48,3.21c-0.06,0.7,1.89,2.29,2.85,2.24
		c2.13-0.12,4.22-1.03,6.33-1.62c0.25,0.45,0.5,0.9,0.57,1.7c0.29,0.86,0.76,1.38,1.23,1.9
		C700.94,124.17,702.32,126.84,703.71,129.75z"/>
	<path fill="#1B1E1E" d="M575.66,121.6c1.79-3.12,5.13-2.55,7.9-3.16c1.75-0.38,3.65-0.18,5.47-0.05c1.97,0.14,3.12-0.55,4.05-2.38
		c0.5-0.99,1.99-2,3.08-2.07c3.97-0.25,7.96-0.15,11.94-0.06c0.9,0.02,2.38,0.32,2.6,0.89c2.3,5.71,7.66,3.76,11.77,4.84
		c1.11,0.29,2.36,0.04,3.54,0.04c5.01,0,6.63-1.28,8.54-6.14c1.14-2.9,3.44-4.52,6.5-4.44c0.58-2.93,1.12-5.65,1.75-8.81
		c-1.17,0-2.73,0-4.28,0c-5.06-0.02-6.42-1.22-7.34-6.16c-0.13-0.71-0.84-1.81-1.36-1.86c-2.62-0.22-5.37-1.84-7.86,0.68
		c-0.56,0.57-2.17,0.8-2.81,0.4c-0.69-0.43-1.16-1.8-1.11-2.72c0.29-4.77,0.08-4.96-4.63-4.13c-2.24,0.39-4.63,0.14-6.77,0.77
		c-2.14,0.64-4.05,2.04-6.08,3.08c-0.26,0.13-0.62,0.07-1.33,0.13c-0.11-0.92,0.07-2.02-0.38-2.65c-0.97-1.33-2.11-3.15-3.47-3.45
		c-2.07-0.46-2.43,1.52-2.28,3.29c0.17,2.02-0.66,3.05-2.79,2.92c-7.48-0.45-14.96-0.83-22.42-1.41c-0.69-0.05-1.77-1.3-1.83-2.05
		c-0.13-1.67,0.28-3.38,0.5-5.55c0.04-0.91,0.04-1.34,0.04-1.77c0.89-0.04,1.78-0.08,2.98,0.18c1.59,0.15,2.87,0,4.15-0.15
		c3.51,0.01,7.02,0.03,10.78,0.35c0.5,0.55,0.75,0.79,1,1.03c0.16-0.35,0.31-0.7,0.47-1.05c2.84,0.13,5.68,0.26,8.82,0.74
		c0.71,0.43,1.12,0.52,1.54,0.6c9.77-0.25,19.07,2.47,28.87,4.6c1.55,1,2.56,2.98,4.16,0.77c8.27,3.09,16.54,6.18,25.53,9.53
		c-2.02,2.66-3.64,4.57-5.01,6.64c-4.31,6.52-8.6,13.05-12.7,19.69c-0.93,1.5-1.78,2.03-3.48,2.02c-18.95-0.09-37.9-0.11-57.14-0.46
		C576.1,123.2,575.88,122.4,575.66,121.6z"/>
	<path fill="#212322" d="M698.87,184.23c0.43,1.47,0.71,3.05,0.89,4.64c0.23,2.01-0.06,3.64-2.03,4.98c-1,0.68-1.65,2.44-1.76,3.77
		c-0.25,3.21-0.03,6.45-0.1,9.67c-0.08,3.76-1.85,5.23-5.55,4.76c-3.64-0.46-4.49,0.36-4.14,3.99c0.43,4.49-1.12,5.89-5.69,4.79
		c-2.51-0.6-3.64,0.31-4.67,2.56c-1.37,2.99-1.39,7.04-5.78,8.07c-0.49,0.11-0.74,2.29-0.68,3.49c0.19,3.87,0.58,7.73,0.79,11.83
		c-0.1,0.23-0.1,0.24-0.36,0.24c-0.96,0.49-1.67,0.97-2.38,1.46c-4.53-2.6-9.05-5.2-13.58-7.8c-0.16-0.5-0.32-0.99-0.49-1.49
		c1-0.6,2.09-1.08,2.98-1.8c6.13-5.03,12.24-10.09,18.3-15.21c0.88-0.74,1.48-1.84,2.1-2.84
		C684.05,207.68,691.36,196.01,698.87,184.23z"/>
	<path fill="#1D201F" d="M553.04,264.46c1.9-3.54,4.39-6.17,8.76-6.53c0.8-0.07,2.06-1.28,2.16-2.09c0.43-3.37,0.61-6.78,0.69-10.18
		c0.12-5.01,0.43-5.48,5.27-5.75c2.22-0.12,3.23-0.97,3.23-3.35c0-1.84,0.62-3.68,1.15-5.62c0.24,11.41,0.33,22.92,0.25,34.43
		c-0.01,0.74-1.22,1.93-2.07,2.13c-3.86,0.94-7.79,1.61-12.1,2.15c-1.35-0.67-2.27-1.37-3.27-1.5
		C554.83,267.84,553.53,266.66,553.04,264.46z"/>
	<path fill="#1C2526" d="M571.14,60.19c-1.23-0.6-2.46-1.19-3.67-1.78c-0.03-0.24-0.17-0.55-0.08-0.64
		c1.85-1.87,4.04-3.41,4.64-6.33c0.11-0.55,2.4-1.24,3.38-0.93c2.93,0.93,5.39,1.36,7.17-1.92c0.41-0.75,1.42-1.35,2.29-1.66
		c2.3-0.81,4.5-1.52,4.54-4.62c0.01-0.51,1.1-1.01,1.49-1.34c1.36,1.46,2.4,2.7,3.58,3.8c1.33,1.24,2.69,1.42,4.27,0.15
		c0.64-0.52,1.95-0.77,2.7-0.49c2.3,0.88,4.48,2.02,6.95,0.55c0.02-0.01,0.59,0.88,0.92,1.6c-7.75,3.53-15.55,6.73-23.26,10.14
		c-2.31,1.02-4.37,2.63-6.83,3.67c-0.3-0.48-0.32-0.66-0.36-1.05c-0.66-0.29-1.28-0.36-2.13-0.42c-0.94,0.22-1.65,0.42-2.47,0.48
		c-0.47,0.17-0.83,0.48-1.43,0.79C572.11,60.19,571.62,60.19,571.14,60.19z"/>
	<path fill="#212322" d="M670.04,247.01c3.87,0.43,7.73,1.08,11.62,1.22c2.66,0.1,4.5,0.53,5.22,3.48c0.52,2.1,2.16,2.84,4.27,1.9
		c1.46-0.65,2.89-1.35,4.57-2.04c-2.06,5.24-2.13,5.48-7.45,4.08c-5.86-1.55-11.58-3.6-17.51-5.84
		C670.42,248.61,670.23,247.81,670.04,247.01C670.04,247.01,670.04,247.01,670.04,247.01z"/>
	<path fill="#222625" d="M552.83,264.36c0.7,2.3,2.01,3.49,4.29,3.8c1,0.14,1.92,0.83,2.99,1.48c-0.61,0.37-1.34,0.53-2.53,0.71
		c-0.91,0.07-1.38,0.13-1.85,0.19c-8.13-6.92-13.77-15.73-18.88-25.17c3.94,0.94,4.32,5.02,6.42,7.68c1.37,1.74,2.31,3.84,3.77,5.48
		c0.58,0.65,2.05,0.5,2.32,0.56C550.64,261.11,551.63,262.68,552.83,264.36z"/>
	<path fill="#1E2424" d="M697.76,117.73c-2.1,0.76-4.19,1.66-6.32,1.79c-0.96,0.06-2.91-1.53-2.85-2.24
		c0.15-1.67,0.36-4.11,3.48-3.21c0.65,0.19,1.68-0.97,2.65-1.75c0.7,0.82,1.29,1.89,1.74,3.3c0.19,0.71,0.53,1.09,0.86,1.46
		C697.47,117.24,697.61,117.4,697.76,117.73z"/>
	<path fill="#222625" d="M571.05,60.39c0.57-0.2,1.06-0.2,1.98-0.21c0.74-0.22,1.04-0.43,1.34-0.63c0.71-0.2,1.42-0.4,2.49-0.46
		c0.91,0.25,1.47,0.35,2.03,0.46c0.02,0.18,0.04,0.36,0.09,0.81c-0.5,0.59-1.03,0.91-1.75,1.29c-2.85,0.84-5.52,1.63-8.44,2.42
		C569.35,62.91,570.16,61.75,571.05,60.39z"/>
	<path fill="#F8EAD9" d="M648.66,308.76c-5.22-0.25-10.5-0.74-15.96-1.41c0.91-0.29,2.01-0.58,3.08-0.5
		c3.19,0.23,6.37,0.58,9.54,0.95C646.43,307.93,647.51,308.26,648.66,308.76z"/>
	<path fill="#F8EAD9" d="M606.07,300.85c-4.37-1.4-8.75-3.04-13.26-4.87c1.1,0.07,2.36,0.23,3.54,0.6c2.83,0.89,5.64,1.85,8.43,2.86
		C605.28,299.62,605.63,300.21,606.07,300.85z"/>
	<path fill="#1D201F" d="M575.48,121.74c0.4,0.67,0.61,1.47,0.83,2.49c-0.52,1.25-1.04,2.28-1.66,3.58c-2.35,0-1.69-1.6-1.27-2.76
		C573.8,123.9,574.65,122.92,575.48,121.74z"/>
	<path fill="#F8EAD9" d="M555.79,270.73c0.41-0.25,0.88-0.31,1.57-0.31c1.5,1.8,2.77,3.55,4.04,5.52
		C559.55,274.42,557.7,272.68,555.79,270.73z"/>
	<path fill="#1D201F" d="M574.58,226.75c-2.32-1.75-2.06-3.88-0.29-6.17C574.55,222.51,574.61,224.52,574.58,226.75z"/>
	<path fill="#1E2424" d="M677.49,148.44c1-0.21,2.05-0.21,3.38-0.21c-0.21,1.38-0.39,2.56-0.8,3.81
		C679.08,150.95,678.31,149.8,677.49,148.44z"/>
	<path fill="#F8EAD9" d="M590.5,294.65c-2.17-0.88-4.37-1.98-6.68-3.28C585.96,292.25,588.22,293.34,590.5,294.65z"/>
	<path fill="#1E2424" d="M686.73,163.16c3.73-1.63,2.58,0.94,2.2,2.89C688.06,165.26,687.4,164.28,686.73,163.16z"/>
	<path fill="#1E2424" d="M669.79,247.01c0.44,0.8,0.64,1.59,0.82,2.64c-0.98-0.12-1.94-0.49-3.05-1.02
		C668.11,247.98,668.82,247.5,669.79,247.01z"/>
	<path fill="#F8EAD9" d="M620.89,304.13c-1.37-0.01-2.78-0.24-4.36-0.64C617.86,303.51,619.35,303.71,620.89,304.13z"/>
	<path fill="#313131" d="M629.23,86.78c-1.43,2.31-2.45,0.34-3.74-0.64C626.62,86.18,627.84,86.43,629.23,86.78z"/>
	<path fill="#363634" d="M573.48,79.74c-1.01,0.24-2.29,0.39-3.62,0.31C570.95,79.77,572.08,79.71,573.48,79.74z"/>
	<path fill="#212322" d="M697.53,248.9c-0.56-0.25-0.94-0.6-1.33-0.95c0.6-0.31,1.2-0.63,2.04-0.94
		C698.21,247.61,697.95,248.2,697.53,248.9z"/>
	<path fill="#222625" d="M566.39,79.7c0.23,0.53,0.23,0.96,0.22,1.61c-0.65-0.23-1.29-0.68-1.94-1.35
		C565.16,79.68,565.66,79.64,566.39,79.7z"/>
	<path fill="#1E2424" d="M699.55,121.27c-0.45-0.3-0.92-0.82-1.2-1.48C698.86,120.11,699.2,120.58,699.55,121.27z"/>
	<path fill="#F8EAD9" d="M573.69,284.95c-0.57-0.09-1.16-0.4-1.83-0.9C572.41,284.15,573.04,284.43,573.69,284.95z"/>
	<path fill="#F8EAD9" d="M608.63,301.6c-0.34,0.13-0.7,0.09-1.18-0.11C607.75,301.36,608.18,301.39,608.63,301.6z"/>
	<path fill="#F8EAD9" d="M623.5,304.82c-0.34,0.15-0.71,0.13-1.2-0.06C622.61,304.62,623.04,304.63,623.5,304.82z"/>
	<path fill="#F8EAD9" d="M614.45,302.84c-0.33,0.17-0.7,0.17-1.19,0.02C613.56,302.69,613.98,302.68,614.45,302.84z"/>
	<path fill="#363634" d="M596.22,81.42c-0.27,0.01-0.69-0.07-1.16-0.32C595.37,81.07,595.73,81.19,596.22,81.42z"/>
	<path fill="#1E2221" d="M697.31,116.88c-0.32-0.17-0.65-0.55-0.82-1.03C696.86,116.06,697.08,116.37,697.31,116.88z"/>
	<path fill="#F8EAD9" d="M577.57,287.46c-0.44,0.01-0.93-0.22-1.53-0.62C576.46,286.85,577,287.04,577.57,287.46z"/>
	<path fill="#F8EAD9" d="M564.63,278.5c-0.45-0.04-0.91-0.31-1.46-0.77C563.58,277.79,564.1,278.03,564.63,278.5z"/>
	<path fill="#222625" d="M585.81,80.07c0.04,0.45-0.12,0.8-0.28,1.15c-0.25-0.24-0.5-0.48-0.76-0.92
		C585.05,80.05,585.33,80.01,585.81,80.07z"/>
	<path fill="#F8EAD9" d="M627.24,305.74c-0.31,0.13-0.74,0.05-1.35-0.18C626.19,305.45,626.65,305.49,627.24,305.74z"/>
	<path fill="#F8EAD9" d="M574.95,286.08c0.06,0.1-0.21,0.13-0.21,0.13s-0.21-0.17-0.23-0.31
		C574.64,285.78,574.78,285.85,574.95,286.08z"/>
	<path fill="#F8EAD9" d="M567.84,281.07c-0.13,0.07-0.34-0.01-0.61-0.25C567.37,280.75,567.57,280.84,567.84,281.07z"/>
	<path fill="#222625" d="M564.5,66.07c-2.21,2.33-4.68,4.62-7.36,6.99c-0.21-0.83-0.22-1.73-0.23-2.9c0.73-1.77,1.46-3.28,2.48-5.39
		C560.55,65.07,562.39,65.56,564.5,66.07z"/>
	<path fill="#222625" d="M553.82,77.48c-0.44,0.35-0.77,0.51-1.25,0.76c-0.04-1.95-0.27-4.21,2.97-4.33
		C555.18,75.08,554.56,76.19,553.82,77.48z"/>
	<path fill="#222625" d="M556.73,73.16c-0.07,0.26-0.33,0.53-0.8,0.79C556,73.68,556.27,73.42,556.73,73.16z"/>
	<path fill="#222625" d="M567.91,64.14c-0.76,0.67-1.73,1.3-2.91,1.97c-0.88-0.94-1.55-1.9-2.24-3.1c0.66-0.22,1.35-0.22,2.34,0
		c0.92,0.5,1.54,0.78,2.16,1.05C567.4,64.07,567.55,64.09,567.91,64.14z"/>
	<path fill="#1C2526" d="M567.26,63.8c-0.62-0.02-1.25-0.29-1.9-0.79c0.36-0.81,0.75-1.4,1.14-1.99
		C566.75,61.85,567,62.7,567.26,63.8z"/>
	<path fill="#242622" d="M614.21,34.99c-0.25,0.64-0.73,1.28-1.46,1.93C612.99,36.28,613.48,35.64,614.21,34.99z"/>
	<path fill="#222625" d="M535.74,133.12c-1.11,0.08-2.04,0.04-3.19-0.04c0.91-1.17,2.04-2.3,3.17-3.44
		c0.36,0.26,0.73,0.52,1.09,0.77C536.52,131.28,536.22,132.13,535.74,133.12z"/>
	<path fill="#222625" d="M536.82,244.88c-0.24-0.09-0.47-0.37-0.67-0.84C536.39,244.13,536.6,244.41,536.82,244.88z"/>
	<path fill="#222625" d="M536.12,243.67c-0.14,0.04-0.32-0.07-0.5-0.35C535.82,243.21,535.97,243.34,536.12,243.67z"/>
	<path fill="#FC8004" d="M671.5,41.45c-0.23,0.03-0.52,0.04-0.67,0.04c-0.21-3.37,2.17-1.06,3.25-1.78
		c0.11,0.25,0.21,0.49,0.32,0.74C673.51,40.77,672.62,41.09,671.5,41.45z"/>
	<path fill="#DE8938" d="M535.56,246.13c-0.25,0.2-0.53,0.21-1.01,0.2c-0.21-0.29-0.21-0.57-0.2-1.06
		C534.75,245.35,535.14,245.64,535.56,246.13z"/>
	<path fill="#DE8938" d="M533.71,243.28c0.14-0.08,0.3,0.04,0.47,0.36C534.04,243.71,533.89,243.59,533.71,243.28z"/>
	<path fill="#F66A0D" d="M668.49,308.5c4.27,0.22,8.11,0.89,11.71,3c1.3,0.76,3.31,0.33,5.18,0.63c-3.84,0.39-7.87,0.85-11.88,0.73
		c-5.86-0.18-11.71-0.77-17.56-1.24c-0.67-0.05-1.3-0.48-2.03-0.98C658.65,309.76,663.45,309.13,668.49,308.5z"/>
	<path fill="#F66A0D" d="M690.72,312.1c-0.26,0.41-0.56,0.62-1.04,0.84c-0.76-0.09-1.34-0.19-2.06-0.46
		C688.55,312.17,689.61,312.03,690.72,312.1z"/>
	<g>
		<path fill="#FD7F05" stroke="#000000" stroke-miterlimit="10" d="M80.25,108.59v20.54H38.89c-7.79,0-11.76,4.11-11.76,11.9v33.43
			c0,7.79,3.97,11.76,11.76,11.76h41.36v20.68H36.9c-19.26,0-30.74-11.62-30.74-30.88v-36.69c0-19.26,11.47-30.74,30.74-30.74H80.25
			z"/>
		<path fill="#FD7F05" stroke="#000000" stroke-miterlimit="10" d="M108.72,134.08v25.92h30.45v-25.92h18.27v72.81h-18.27v-28.9
			h-30.45v28.9H90.45v-72.81H108.72z"/>
		<path fill="#FD7F05" stroke="#000000" stroke-miterlimit="10" d="M236.49,206.89h-19.26l-16.43-52.55
			c-0.71-2.41-1.84-3.54-3.68-3.54c-1.84,0-2.83,1.13-3.54,3.54l-16.43,52.55h-19.26l19.83-59.92c2.97-9.07,9.92-14.16,19.41-14.16
			c9.49,0,16.01,4.82,19.41,14.16L236.49,206.89z"/>
		<path fill="#FD7F05" stroke="#000000" stroke-miterlimit="10" d="M294.57,134.08v17.99h-21.67v54.82h-18.27v-54.82h-21.67v-17.99
			H294.57z"/>
		<path fill="#FD7F05" stroke="#000000" stroke-miterlimit="10" d="M381.12,108.59v20.54H335.5c-8.64,0-11.47,2.83-11.47,11.47v6.23
			h57.08v20.68h-57.08v39.38h-20.96v-67.57c0-22.24,8.64-30.74,30.88-30.74H381.12z"/>
		<path fill="#FD7F05" stroke="#000000" stroke-miterlimit="10" d="M409.02,108.59l19.69,30.6c0.99,1.42,1.98,2.27,2.97,2.27
			c0.99,0,1.84-0.85,2.83-2.27l19.69-30.6h24.93l-32.01,46.74l35.98,51.56h-25.5l-23.09-34.56c-0.99-1.42-1.84-2.27-2.83-2.27
			c-0.99,0-1.98,0.85-2.97,2.27l-22.95,34.56h-25.64l35.98-51.56l-32.01-46.74H409.02z"/>
	</g>
	<g>
		<path fill="#FFFFFF" stroke="#FD7F05" stroke-width="0.75" stroke-miterlimit="10" d="M28.12,217.64v5.55H16.93
			c-2.11,0-3.18,1.11-3.18,3.22v9.04c0,2.11,1.07,3.18,3.18,3.18h11.18v5.59H16.4c-5.21,0-8.31-3.14-8.31-8.35v-9.92
			c0-5.21,3.1-8.31,8.31-8.31H28.12z"/>
		<path fill="#FFFFFF" stroke="#FD7F05" stroke-width="0.75" stroke-miterlimit="10" d="M43.36,224.19c4.21,0,6.66,2.45,6.66,6.66
			v7.05c0,4.21-2.45,6.66-6.66,6.66h-5.94c-4.21,0-6.66-2.45-6.66-6.66v-7.05c0-4.21,2.45-6.66,6.66-6.66H43.36z M35.74,237.21
			c0,1.57,0.92,2.49,2.49,2.49h4.33c1.57,0,2.49-0.92,2.49-2.49v-5.67c0-1.57-0.92-2.49-2.49-2.49h-4.33
			c-1.57,0-2.49,0.92-2.49,2.49V237.21z"/>
		<path fill="#FFFFFF" stroke="#FD7F05" stroke-width="0.75" stroke-miterlimit="10" d="M67.22,237.86
			c0.27,1.26,0.73,1.84,1.61,1.84c0.73,0,1.23-0.61,1.23-1.68v-13.48H75v14.48c0,3.29-2.41,5.55-6.17,5.55
			c-3.41,0-5.48-1.72-6.17-5.06l-1.76-8.58c-0.27-1.26-0.73-1.88-1.61-1.88c-0.73,0-1.23,0.61-1.23,1.69v13.48h-4.94v-14.48
			c0-3.29,2.41-5.55,6.17-5.55c3.41,0,5.48,1.72,6.17,5.05L67.22,237.86z"/>
		<path fill="#FFFFFF" stroke="#FD7F05" stroke-width="0.75" stroke-miterlimit="10" d="M85.72,244.56c-2.57,0-4.44-1.38-5.25-3.83
			l-5.36-16.2h5.21l4.44,14.21c0.19,0.65,0.46,0.96,0.96,0.96s0.8-0.31,1-0.96l4.44-14.21h5.21l-5.4,16.2
			C90.05,243.26,88.29,244.56,85.72,244.56z"/>
		<path fill="#FFFFFF" stroke="#FD7F05" stroke-width="0.75" stroke-miterlimit="10" d="M112.61,224.53v4.79h-9.5
			c-1.42,0-1.76,0.31-1.76,1.65v0.92h11.26v4.71h-11.26v1.19c0,1.38,0.34,1.65,1.76,1.65h9.5v4.79h-9.73c-4.63,0-6.51-1.84-6.51-6.4
			v-6.89c0-4.56,1.88-6.4,6.51-6.4H112.61z"/>
		<path fill="#FFFFFF" stroke="#FD7F05" stroke-width="0.75" stroke-miterlimit="10" d="M132.41,224.53v4.86h-10.57
			c-1.07,0-1.61,0.34-1.61,1.23s0.54,1.23,1.61,1.23h4.37c4.48,0,7.09,2.41,7.09,6.13c0,3.83-2.6,6.24-7.09,6.24h-10.57v-4.86h10.76
			c1.3,0,1.92-0.38,1.92-1.34c0-0.96-0.61-1.3-1.92-1.3h-4.4c-4.17,0-6.7-2.45-6.7-6.09s2.53-6.09,6.7-6.09H132.41z"/>
		<path fill="#FFFFFF" stroke="#FD7F05" stroke-width="0.75" stroke-miterlimit="10" d="M154.01,244.22h-5.21l-4.44-14.21
			c-0.19-0.65-0.5-0.96-1-0.96s-0.77,0.31-0.96,0.96l-4.44,14.21h-5.21l5.36-16.2c0.8-2.45,2.68-3.83,5.25-3.83s4.33,1.3,5.25,3.83
			L154.01,244.22z"/>
		<path fill="#FFFFFF" stroke="#FD7F05" stroke-width="0.75" stroke-miterlimit="10" d="M168.22,237.86
			c0.27,1.26,0.73,1.84,1.61,1.84c0.73,0,1.23-0.61,1.23-1.68v-13.48h4.94v14.48c0,3.29-2.41,5.55-6.17,5.55
			c-3.41,0-5.48-1.72-6.17-5.06l-1.76-8.58c-0.27-1.26-0.73-1.88-1.61-1.88c-0.73,0-1.23,0.61-1.23,1.69v13.48h-4.94v-14.48
			c0-3.29,2.41-5.55,6.17-5.55c3.41,0,5.48,1.72,6.17,5.05L168.22,237.86z"/>
		<path fill="#FFFFFF" stroke="#FD7F05" stroke-width="0.75" stroke-miterlimit="10" d="M197.29,231.2v6.36
			c0,4.21-2.45,6.66-6.66,6.66h-11.41v-19.69h11.41C194.83,224.53,197.29,226.98,197.29,231.2z M184.15,229.4v9.96h5.71
			c1.57,0,2.45-0.92,2.45-2.49v-4.98c0-1.57-0.88-2.49-2.45-2.49H184.15z"/>
		<path fill="#FFFFFF" stroke="#FD7F05" stroke-width="0.75" stroke-miterlimit="10" d="M212.87,224.19c4.21,0,6.66,2.45,6.66,6.66
			v7.05c0,4.21-2.45,6.66-6.66,6.66h-5.94c-4.21,0-6.66-2.45-6.66-6.66v-7.05c0-4.21,2.45-6.66,6.66-6.66H212.87z M205.25,237.21
			c0,1.57,0.92,2.49,2.49,2.49h4.33c1.57,0,2.49-0.92,2.49-2.49v-5.67c0-1.57-0.92-2.49-2.49-2.49h-4.33
			c-1.57,0-2.49,0.92-2.49,2.49V237.21z"/>
		<path fill="#FFFFFF" stroke="#FD7F05" stroke-width="0.75" stroke-miterlimit="10" d="M255.92,217.64v5.55h-8.77
			c-2.3,0-3.18,0.57-3.18,2.57c0,1.95,0.84,2.57,3.18,2.57h1v4.94h-1.19c-2.41,0-3.26,0.73-3.26,2.95c0,2.22,0.84,2.95,3.26,2.95
			h3.68c2.26,0,3.26-0.73,3.26-2.6v-3.29h-3.1v-4.94h11.72v4.94h-2.95v5.52c0,4.02-2.64,5.97-8.04,5.97h-5.71
			c-5.4,0-8.08-1.95-8.08-5.97v-3.06c0-3.14,1.84-4.86,5.48-5.09c-3.33-0.04-5.17-1.72-5.17-4.52v-2.6c0-3.91,2.68-5.86,8.04-5.86
			H255.92z"/>
		<path fill="#FFFFFF" stroke="#FD7F05" stroke-width="0.75" stroke-miterlimit="10" d="M293.23,217.64c5.48,0,8.12,1.8,8.12,5.86
			v2.11c0,3.06-1.11,4.86-3.49,5.59c1.46,0.57,2.45,1.99,2.87,4.06l1.92,8.96h-5.97l-1.3-7.2c-0.34-1.99-1.46-3.26-2.76-3.26h-5.71
			v-5.32H293c1.76,0,2.68-0.73,2.68-1.92v-1.42c0-1.19-0.92-1.92-2.68-1.92h-8.77v21.03h-5.67v-26.58H293.23z"/>
		<path fill="#FFFFFF" stroke="#FD7F05" stroke-width="0.75" stroke-miterlimit="10" d="M320.23,224.53v4.79h-9.5
			c-1.42,0-1.76,0.31-1.76,1.65v0.92h11.26v4.71h-11.26v1.19c0,1.38,0.34,1.65,1.76,1.65h9.5v4.79h-9.73c-4.63,0-6.51-1.84-6.51-6.4
			v-6.89c0-4.56,1.88-6.4,6.51-6.4H320.23z"/>
		<path fill="#FFFFFF" stroke="#FD7F05" stroke-width="0.75" stroke-miterlimit="10" d="M340.03,224.53v4.86h-10.57
			c-1.07,0-1.61,0.34-1.61,1.23s0.54,1.23,1.61,1.23h4.37c4.48,0,7.09,2.41,7.09,6.13c0,3.83-2.6,6.24-7.09,6.24h-10.57v-4.86h10.76
			c1.3,0,1.92-0.38,1.92-1.34c0-0.96-0.61-1.3-1.92-1.3h-4.41c-4.17,0-6.7-2.45-6.7-6.09s2.53-6.09,6.7-6.09H340.03z"/>
		<path fill="#FFFFFF" stroke="#FD7F05" stroke-width="0.75" stroke-miterlimit="10" d="M355.96,224.19c4.21,0,6.66,2.45,6.66,6.66
			v7.05c0,4.21-2.45,6.66-6.66,6.66h-5.94c-4.21,0-6.66-2.45-6.66-6.66v-7.05c0-4.21,2.45-6.66,6.66-6.66H355.96z M348.34,237.21
			c0,1.57,0.92,2.49,2.49,2.49h4.33c1.57,0,2.49-0.92,2.49-2.49v-5.67c0-1.57-0.92-2.49-2.49-2.49h-4.33
			c-1.57,0-2.49,0.92-2.49,2.49V237.21z"/>
		<path fill="#FFFFFF" stroke="#FD7F05" stroke-width="0.75" stroke-miterlimit="10" d="M370.67,224.53v12.52c0,1.8,0.5,2.3,2.3,2.3
			h6.05v4.86h-6.82c-4.67,0-6.47-1.84-6.47-6.47v-13.21H370.67z"/>
		<path fill="#FFFFFF" stroke="#FD7F05" stroke-width="0.75" stroke-miterlimit="10" d="M388.48,244.56c-2.57,0-4.44-1.38-5.25-3.83
			l-5.36-16.2h5.21l4.44,14.21c0.19,0.65,0.46,0.96,0.96,0.96s0.8-0.31,1-0.96l4.44-14.21h5.21l-5.4,16.2
			C392.8,243.26,391.04,244.56,388.48,244.56z"/>
		<path fill="#FFFFFF" stroke="#FD7F05" stroke-width="0.75" stroke-miterlimit="10" d="M415.36,224.53v4.79h-9.5
			c-1.42,0-1.76,0.31-1.76,1.65v0.92h11.26v4.71H404.1v1.19c0,1.38,0.34,1.65,1.76,1.65h9.5v4.79h-9.73c-4.63,0-6.51-1.84-6.51-6.4
			v-6.89c0-4.56,1.88-6.4,6.51-6.4H415.36z"/>
		<path fill="#FFFFFF" stroke="#FD7F05" stroke-width="0.75" stroke-miterlimit="10" d="M432.67,237.86
			c0.27,1.26,0.73,1.84,1.61,1.84c0.73,0,1.23-0.61,1.23-1.68v-13.48h4.94v14.48c0,3.29-2.41,5.55-6.17,5.55
			c-3.41,0-5.48-1.72-6.17-5.06l-1.76-8.58c-0.27-1.26-0.73-1.88-1.61-1.88c-0.73,0-1.23,0.61-1.23,1.69v13.48h-4.94v-14.48
			c0-3.29,2.41-5.55,6.17-5.55c3.41,0,5.48,1.72,6.17,5.05L432.67,237.86z"/>
		<path fill="#FFFFFF" stroke="#FD7F05" stroke-width="0.75" stroke-miterlimit="10" d="M461.74,231.2v6.36
			c0,4.21-2.45,6.66-6.66,6.66h-11.41v-19.69h11.41C459.29,224.53,461.74,226.98,461.74,231.2z M448.61,229.4v9.96h5.71
			c1.57,0,2.45-0.92,2.45-2.49v-4.98c0-1.57-0.88-2.49-2.45-2.49H448.61z"/>
		<path fill="#FFFFFF" stroke="#FD7F05" stroke-width="0.75" stroke-miterlimit="10" d="M477.33,224.19c4.21,0,6.66,2.45,6.66,6.66
			v7.05c0,4.21-2.45,6.66-6.66,6.66h-5.94c-4.21,0-6.66-2.45-6.66-6.66v-7.05c0-4.21,2.45-6.66,6.66-6.66H477.33z M469.71,237.21
			c0,1.57,0.92,2.49,2.49,2.49h4.33c1.57,0,2.49-0.92,2.49-2.49v-5.67c0-1.57-0.92-2.49-2.49-2.49h-4.33
			c-1.57,0-2.49,0.92-2.49,2.49V237.21z"/>
	</g>
</g>
<g id="Layer_2">
	<g>
	</g>
	<g>
	</g>
	<g>
	</g>
	<g>
	</g>
	<g>
	</g>
	<g>
	</g>
	<g>
	</g>
	<g>
	</g>
	<g>
	</g>
	<g>
	</g>
	<g>
	</g>
	<g>
	</g>
	<g>
	</g>
	<g>
	</g>
	<g>
	</g>
</g>
</svg>
